<svg xmlns="http://www.w3.org/2000/svg" width="258" height="132" viewBox="0 0 258 132">
  <g fill="none" fill-rule="evenodd" transform="translate(40 37)">
    <path fill="#3DAB53" fill-rule="nonzero" d="M23.8820639,33.6788732 C18.8506334,33.7133803 14.7496729,30.4007042 14.4739781,24.2239437 C14.1982833,18.4612676 19.2297138,14.5964789 24.0199113,14.4929577 C29.5338077,14.3549296 32.8421456,20.7042254 32.8421456,20.7042254 L47.0748907,15.4246479 C47.0748907,15.4246479 41.2163758,0.138028169 25.3639235,0.138028169 C10.5453269,0.138028169 0.310156674,10.4901408 0.310156674,24.534507 C0.310156674,37.0260563 9.95947541,49.4830986 25.019305,48.9309859 C41.5609943,48.3098592 47.2127381,33.6443662 47.2127381,33.6443662 L32.6009126,28.7788732 C32.6353745,28.7098592 29.6371933,33.6788732 23.8820639,33.6788732"/>
    <path stroke="#006838" stroke-width="1.723" d="M23.8820639,33.6788732 C18.8506334,33.7133803 14.7496729,30.4007042 14.4739781,24.2239437 C14.1982833,18.4612676 19.2297138,14.5964789 24.0199113,14.4929577 C29.5338077,14.3549296 32.8421456,20.7042254 32.8421456,20.7042254 L47.0748907,15.4246479 C47.0748907,15.4246479 41.2163758,0.138028169 25.3639235,0.138028169 C10.5453269,0.138028169 0.310156674,10.4901408 0.310156674,24.534507 C0.310156674,37.0260563 9.95947541,49.4830986 25.019305,48.9309859 C41.5609943,48.3098592 47.2127381,33.6443662 47.2127381,33.6443662 L32.6009126,28.7788732 C32.6353745,28.7098592 29.6371933,33.6788732 23.8820639,33.6788732"/>
    <g fill="#000" fill-rule="nonzero" transform="translate(54.45 34.852)">
      <path d="M0.0344618526,5.52112676 C0.0344618526,4.38239437 0.482465937,3.55422535 1.34401225,3.03661972 C2.06771116,2.58802817 2.96371933,2.34647887 4.03203676,2.34647887 C5.20373975,2.34647887 6.16867162,2.62253521 6.89237053,3.17464789 C7.65053129,3.72676056 7.99514981,4.48591549 7.99514981,5.45211268 C7.99514981,6.24577465 7.82284055,6.83239437 7.51268388,7.28098592 C7.16806535,7.72957746 6.72006127,8.07464789 6.06528607,8.31619718 C5.44497272,8.55774648 4.75573566,8.69577465 3.99757491,8.69577465 C2.79141006,8.69577465 1.82647819,8.41971831 1.10277928,7.86760563 C0.413542232,7.35 0.0344618526,6.55633803 0.0344618526,5.52112676 Z M1.51632152,5.52112676 C1.51632152,6.31478873 1.75755448,6.86690141 2.24002042,7.28098592 C2.72248636,7.66056338 3.30833785,7.86760563 4.03203676,7.86760563 C4.75573566,7.86760563 5.34158716,7.66056338 5.8240531,7.28098592 C6.30651903,6.90140845 6.547752,6.31478873 6.547752,5.52112676 C6.547752,4.76197183 6.30651903,4.20985915 5.8240531,3.83028169 C5.34158716,3.45070423 4.75573566,3.24366197 4.03203676,3.24366197 C3.30833785,3.24366197 2.72248636,3.45070423 2.24002042,3.83028169 C1.75755448,4.17535211 1.51632152,4.76197183 1.51632152,5.52112676 Z M9.13239095,6.76338028 L10.5453269,6.59084507 C10.6142506,7.00492958 10.8554836,7.31549296 11.2001021,7.52253521 C11.5791825,7.72957746 12.0616484,7.83309859 12.7508855,7.83309859 C13.4056607,7.83309859 13.9225885,7.72957746 14.2327451,7.55704225 C14.5429018,7.35 14.7152111,7.14295775 14.7152111,6.86690141 C14.7152111,6.62535211 14.5773637,6.4528169 14.3016688,6.31478873 C14.0948977,6.21126761 13.6124318,6.10774648 12.8198092,5.96971831 C11.7514918,5.76267606 11.0277928,5.62464789 10.6142506,5.48661972 C10.2007084,5.34859155 9.89055171,5.1415493 9.68378059,4.9 C9.47700948,4.6584507 9.37362392,4.38239437 9.37362392,4.07183099 C9.37362392,3.79577465 9.47700948,3.55422535 9.64931874,3.31267606 C9.821628,3.07112676 10.062861,2.89859155 10.3730176,2.72605634 C10.6142506,2.62253521 10.8899454,2.51901408 11.3034877,2.41549296 C11.682568,2.34647887 12.0961103,2.27746479 12.5441144,2.27746479 C13.1988896,2.27746479 13.7847411,2.34647887 14.3016688,2.48450704 C14.8185966,2.62253521 15.1632152,2.79507042 15.4044481,3.03661972 C15.6456811,3.27816901 15.8179904,3.58873239 15.8869141,3.96830986 L14.4739781,4.10633803 C14.4050544,3.79577465 14.2327451,3.55422535 13.9225885,3.38169014 C13.6124318,3.20915493 13.1644277,3.1056338 12.6130381,3.1056338 C11.9582629,3.1056338 11.4757969,3.17464789 11.2001021,3.3471831 C10.9244073,3.51971831 10.7865599,3.69225352 10.7865599,3.89929577 C10.7865599,4.03732394 10.8554836,4.14084507 10.9588691,4.2443662 C11.0622547,4.34788732 11.2690258,4.45140845 11.5102588,4.52042254 C11.6481062,4.55492958 12.0961103,4.6584507 12.7853473,4.79647887 C13.8192029,5.00352113 14.50844,5.1415493 14.9219822,5.27957746 C15.3355244,5.41760563 15.6456811,5.59014085 15.8869141,5.83169014 C16.128147,6.07323944 16.2315326,6.34929577 16.2315326,6.6943662 C16.2315326,7.03943662 16.0936852,7.35 15.8179904,7.66056338 C15.5422955,7.97112676 15.1287533,8.21267606 14.6118255,8.35070423 C14.0948977,8.52323944 13.4745844,8.59225352 12.8198092,8.59225352 C11.7170299,8.59225352 10.8554836,8.41971831 10.3040939,8.10915493 C9.64931874,7.90211268 9.30470021,7.41901408 9.13239095,6.76338028 Z M23.5029835,6.34929577 L24.9159195,6.48732394 C24.7436102,7.17746479 24.3645298,7.72957746 23.7097546,8.10915493 C23.0549794,8.48873239 22.2968187,8.69577465 21.3663486,8.69577465 C20.1946456,8.69577465 19.2641756,8.41971831 18.5404767,7.86760563 C17.8167778,7.31549296 17.4721593,6.55633803 17.4721593,5.52112676 C17.4721593,4.86549296 17.6100067,4.27887324 17.9201634,3.79577465 C18.23032,3.31267606 18.6783241,2.93309859 19.2986375,2.6915493 C19.9189508,2.45 20.6081879,2.31197183 21.3318868,2.31197183 C22.2623568,2.31197183 23.0205176,2.48450704 23.6063691,2.79507042 C24.1922206,3.14014085 24.5713009,3.58873239 24.7436102,4.20985915 L23.3306742,4.34788732 C23.1928268,3.93380282 22.9515939,3.62323944 22.6069753,3.41619718 C22.2623568,3.20915493 21.8488146,3.1056338 21.3663486,3.1056338 C20.6426497,3.1056338 20.0567982,3.27816901 19.6087942,3.65774648 C19.1607901,4.03732394 18.9195571,4.62394366 18.9195571,5.41760563 C18.9195571,6.24577465 19.1263282,6.83239437 19.5743323,7.17746479 C20.0223364,7.55704225 20.573726,7.72957746 21.2974249,7.72957746 C21.8488146,7.72957746 22.3312805,7.5915493 22.7103609,7.35 C23.158365,7.24647887 23.3995979,6.86690141 23.5029835,6.34929577 Z M26.1565462,8.55774648 L26.1565462,0.172535211 L27.603944,0.172535211 L27.603944,3.17464789 C28.293181,2.62253521 29.1202655,2.34647887 30.1541211,2.34647887 C30.7744344,2.34647887 31.3258241,2.45 31.80829,2.62253521 C32.2907559,2.79507042 32.6009126,3.03661972 32.8076837,3.3471831 C33.0144548,3.65774648 33.1178404,4.10633803 33.1178404,4.69295775 L33.1178404,8.52323944 L31.6704426,8.52323944 L31.6704426,4.69295775 C31.6704426,4.17535211 31.4981333,3.79577465 31.1879766,3.55422535 C30.87782,3.31267606 30.4298159,3.20915493 29.8439644,3.20915493 C29.4304222,3.20915493 29.0168799,3.27816901 28.6377995,3.45070423 C28.2587192,3.62323944 27.9830243,3.83028169 27.8451769,4.10633803 C27.6728677,4.38239437 27.603944,4.76197183 27.603944,5.21056338 L27.603944,8.52323944 L26.1565462,8.55774648 Z M35.2889371,1.38028169 L35.2889371,0.207042254 L36.7363349,0.207042254 L36.7363349,1.38028169 L35.2889371,1.38028169 Z M35.2889371,8.55774648 L35.2889371,2.48450704 L36.7363349,2.48450704 L36.7363349,8.55774648 L35.2889371,8.55774648 Z M38.9418935,8.55774648 L38.9418935,2.48450704 L40.2514439,2.48450704 L40.2514439,3.3471831 C40.8717572,2.6915493 41.7677654,2.34647887 42.9739302,2.34647887 C43.490858,2.34647887 43.973324,2.41549296 44.3868662,2.55352113 C44.8004084,2.6915493 45.145027,2.86408451 45.3517981,3.07112676 C45.5585692,3.27816901 45.7308785,3.55422535 45.7998022,3.83028169 C45.8687259,4.03732394 45.8687259,4.34788732 45.8687259,4.83098592 L45.8687259,8.55774648 L44.4213281,8.55774648 L44.4213281,4.86549296 C44.4213281,4.45140845 44.3524044,4.14084507 44.2490188,3.93380282 C44.1456332,3.72676056 43.9388621,3.55422535 43.6631673,3.45070423 C43.3874725,3.31267606 43.042854,3.27816901 42.6637736,3.27816901 C42.0434602,3.27816901 41.5265324,3.41619718 41.0785284,3.69225352 C40.6305243,3.96830986 40.4237532,4.48591549 40.4237532,5.27957746 L40.4237532,8.59225352 L38.9418935,8.59225352 L38.9418935,8.55774648 Z M53.6226427,7.83309859 C53.0712531,8.14366197 52.5887871,8.38521127 52.0718593,8.52323944 C51.5893934,8.66126761 51.0380038,8.73028169 50.4866141,8.73028169 C49.5561441,8.73028169 48.8324452,8.55774648 48.3155174,8.2471831 C47.7985896,7.93661972 47.5573566,7.52253521 47.5573566,7.00492958 C47.5573566,6.6943662 47.6607422,6.4528169 47.8330515,6.17676056 C48.0398226,5.93521127 48.2810556,5.72816901 48.5912122,5.59014085 C48.9013689,5.45211268 49.2459874,5.31408451 49.6250678,5.24507042 C49.9007626,5.17605634 50.3487667,5.1415493 50.9001564,5.10704225 C52.0718593,5.00352113 52.9334057,4.9 53.4847953,4.76197183 L53.4847953,4.48591549 C53.4847953,4.07183099 53.3469479,3.76126761 53.0712531,3.58873239 C52.6921727,3.3471831 52.140783,3.24366197 51.4170841,3.24366197 C50.7278471,3.24366197 50.2453812,3.31267606 49.9007626,3.48521127 C49.590606,3.65774648 49.349373,3.96830986 49.1770637,4.38239437 L47.7641278,4.2443662 C47.9019752,3.83028169 48.1087463,3.45070423 48.3844411,3.20915493 C48.6945978,2.93309859 49.10814,2.72605634 49.6595297,2.58802817 C50.2109193,2.45 50.8656945,2.38098592 51.5893934,2.38098592 C52.3130923,2.38098592 52.8989438,2.45 53.3469479,2.55352113 C53.794952,2.6915493 54.1395705,2.82957746 54.3463416,3.00211268 C54.5531127,3.17464789 54.725422,3.41619718 54.7943457,3.69225352 C54.8288076,3.86478873 54.8632694,4.17535211 54.8632694,4.62394366 L54.8632694,6.00422535 C54.8632694,6.97042254 54.8977313,7.55704225 54.966655,7.83309859 C55.0355787,8.07464789 55.1389642,8.31619718 55.3457353,8.55774648 L53.8294138,8.55774648 C53.7604901,8.35070423 53.6915664,8.10915493 53.6226427,7.83309859 Z M53.5192572,5.52112676 C53.0023294,5.65915493 52.2097068,5.7971831 51.1758512,5.90070423 C50.5899997,5.96971831 50.1764574,6.03873239 49.9007626,6.10774648 C49.6595297,6.17676056 49.4527585,6.28028169 49.3149111,6.4528169 C49.1770637,6.59084507 49.10814,6.76338028 49.10814,6.93591549 C49.10814,7.21197183 49.2459874,7.45352113 49.5561441,7.62605634 C49.8318389,7.79859155 50.279843,7.90211268 50.8312326,7.90211268 C51.3826223,7.90211268 51.8650882,7.79859155 52.3130923,7.62605634 C52.7610964,7.45352113 53.0712531,7.21197183 53.2780242,6.90140845 C53.4503335,6.65985915 53.5192572,6.31478873 53.5192572,5.86619718 L53.5192572,5.52112676 Z"/>
      <polygon points="57.62 8.558 57.62 7.385 59.274 7.385 59.274 8.558"/>
      <path d="M61.7901018,8.55774648 L61.7901018,2.48450704 L63.0996522,2.48450704 L63.0996522,3.3471831 C63.7199655,2.6915493 64.6159737,2.34647887 65.8221385,2.34647887 C66.3390663,2.34647887 66.8215323,2.41549296 67.2350745,2.55352113 C67.6486167,2.6915493 67.9932353,2.86408451 68.2000064,3.07112676 C68.4067775,3.27816901 68.5790868,3.55422535 68.6480105,3.83028169 C68.7169342,4.03732394 68.7169342,4.34788732 68.7169342,4.83098592 L68.7169342,8.55774648 L67.2695364,8.55774648 L67.2695364,4.86549296 C67.2695364,4.45140845 67.2006127,4.14084507 67.0972271,3.93380282 C66.9938415,3.72676056 66.7870704,3.55422535 66.5113756,3.45070423 C66.2356808,3.31267606 65.8910623,3.27816901 65.5119819,3.27816901 C64.8916685,3.27816901 64.3747407,3.41619718 63.9267367,3.69225352 C63.4787326,3.96830986 63.2719615,4.48591549 63.2719615,5.27957746 L63.2719615,8.59225352 L61.7901018,8.59225352 L61.7901018,8.55774648 Z M76.7465458,6.62535211 L78.2284055,6.76338028 C77.9871725,7.38450704 77.5736303,7.86760563 76.9188551,8.21267606 C76.2985418,8.55774648 75.4714573,8.73028169 74.4720636,8.73028169 C73.2314369,8.73028169 72.2320431,8.45422535 71.5083442,7.90211268 C70.7846453,7.35 70.405565,6.59084507 70.405565,5.59014085 C70.405565,4.55492958 70.7846453,3.76126761 71.5083442,3.20915493 C72.2320431,2.65704225 73.196975,2.34647887 74.368678,2.34647887 C75.5059191,2.34647887 76.4363892,2.62253521 77.1600881,3.17464789 C77.883787,3.72676056 78.2284055,4.52042254 78.2284055,5.52112676 L78.2284055,5.7971831 L71.8874246,5.7971831 C71.9563483,6.4528169 72.1975813,6.97042254 72.6800472,7.31549296 C73.1625132,7.66056338 73.7483647,7.83309859 74.4720636,7.83309859 C74.9889914,7.83309859 75.4369954,7.72957746 75.8160758,7.52253521 C76.229618,7.35 76.5397747,7.03943662 76.7465458,6.62535211 Z M72.025272,4.96901408 L76.7810077,4.96901408 C76.712084,4.45140845 76.5397747,4.07183099 76.229618,3.83028169 C75.781614,3.45070423 75.1613006,3.24366197 74.4376017,3.24366197 C73.7828265,3.24366197 73.2314369,3.41619718 72.7489709,3.72676056 C72.3009668,4.0028169 72.0597339,4.41690141 72.025272,4.96901408 Z M83.2253741,7.66056338 L83.4321453,8.55774648 C83.018603,8.62676056 82.6739845,8.66126761 82.329366,8.66126761 C81.8124382,8.66126761 81.3988959,8.59225352 81.1232011,8.48873239 C80.8475063,8.38521127 80.6407352,8.21267606 80.5028878,8.04014085 C80.3995022,7.83309859 80.3305785,7.45352113 80.3305785,6.83239437 L80.3305785,3.3471831 L79.2622611,3.3471831 L79.2622611,2.55352113 L80.3305785,2.55352113 L80.3305785,1.03521127 L81.7779763,0.414084507 L81.7779763,2.51901408 L83.2253741,2.51901408 L83.2253741,3.31267606 L81.7779763,3.31267606 L81.7779763,6.86690141 C81.7779763,7.17746479 81.8124382,7.35 81.8469,7.41901408 C81.8813619,7.48802817 81.9847474,7.55704225 82.088133,7.62605634 C82.1915186,7.66056338 82.3638278,7.69507042 82.5705989,7.69507042 C82.7429082,7.69507042 82.9496793,7.66056338 83.2253741,7.66056338 Z"/>
    </g>
    <path fill="#006838" fill-rule="nonzero" d="M53.5881809,8.59225352 C53.5881809,7.52253521 53.8638757,6.72887324 54.4497272,6.21126761 C54.9321931,5.7971831 55.4835828,5.5556338 56.1728198,5.5556338 C56.9309806,5.5556338 57.5512939,5.83169014 58.0337599,6.34929577 C58.5162258,6.86690141 58.7574588,7.5915493 58.7574588,8.48873239 C58.7574588,9.21338028 58.6540732,9.8 58.4473021,10.2485915 C58.240531,10.6626761 57.9303743,11.0077465 57.5168321,11.2492958 C57.1032898,11.4908451 56.6552857,11.5943662 56.2072817,11.5943662 C55.4491209,11.5943662 54.8288076,11.3528169 54.3463416,10.8352113 C53.8294138,10.2830986 53.5881809,9.5584507 53.5881809,8.59225352 Z M54.5531127,8.59225352 C54.5531127,9.31690141 54.6909601,9.86901408 55.0011168,10.2485915 C55.3112735,10.628169 55.6903539,10.8007042 56.1728198,10.8007042 C56.6208239,10.8007042 56.9999043,10.628169 57.3100609,10.2485915 C57.6202176,9.86901408 57.758065,9.31690141 57.758065,8.55774648 C57.758065,7.83309859 57.6202176,7.31549296 57.3100609,6.93591549 C56.9999043,6.55633803 56.6208239,6.38380282 56.1728198,6.38380282 C55.7248157,6.38380282 55.3112735,6.55633803 55.0011168,6.93591549 C54.6909601,7.28098592 54.5531127,7.83309859 54.5531127,8.59225352 Z"/>
    <path fill="#A7A9AC" fill-rule="nonzero" d="M0.206771116,8.14366197 L0.206771116,0.172535211 L1.06831743,0.172535211 L1.06831743,0.931690141 C1.27508855,0.655633803 1.48185966,0.414084507 1.75755448,0.276056338 C1.99878745,0.138028169 2.30894413,0.0690140845 2.65356265,0.0690140845 C3.13602859,0.0690140845 3.54957082,0.207042254 3.89418935,0.448591549 C4.23880788,0.690140845 4.5145027,1.06971831 4.68681196,1.51830986 C4.85912122,1.96690141 4.96250678,2.48450704 4.96250678,3.03661972 C4.96250678,3.62323944 4.85912122,4.14084507 4.65235011,4.62394366 C4.44557899,5.10704225 4.16988417,5.45211268 3.79080379,5.69366197 C3.41172341,5.93521127 2.99818118,6.07323944 2.58463895,6.07323944 C2.27448227,6.07323944 1.99878745,6.00422535 1.75755448,5.86619718 C1.51632152,5.72816901 1.3095504,5.5556338 1.13724114,5.34859155 L1.13724114,8.14366197 L0.206771116,8.14366197 Z M1.03385558,3.1056338 C1.03385558,3.83028169 1.17170299,4.38239437 1.44739781,4.76197183 C1.72309263,5.10704225 2.06771116,5.27957746 2.48125339,5.27957746 C2.89479562,5.27957746 3.23941415,5.10704225 3.54957082,4.72746479 C3.8597275,4.34788732 3.99757491,3.79577465 3.99757491,3.03661972 C3.99757491,2.31197183 3.8597275,1.75985915 3.58403267,1.38028169 C3.30833785,1.00070423 2.96371933,0.828169014 2.5501771,0.828169014 C2.17109672,0.828169014 1.79201634,1.03521127 1.51632152,1.41478873 C1.17170299,1.7943662 1.03385558,2.34647887 1.03385558,3.1056338 Z M9.821628,4.07183099 L10.7865599,4.20985915 C10.6487125,4.79647887 10.3385558,5.24507042 9.95947541,5.59014085 C9.54593318,5.90070423 9.02900539,6.07323944 8.40869205,6.07323944 C7.61606943,6.07323944 6.96129423,5.7971831 6.51329015,5.27957746 C6.03082421,4.76197183 5.8240531,4.03732394 5.8240531,3.1056338 C5.8240531,2.13943662 6.06528607,1.38028169 6.547752,0.862676056 C7.03021794,0.31056338 7.65053129,0.0690140845 8.40869205,0.0690140845 C9.13239095,0.0690140845 9.7527043,0.345070423 10.2007084,0.862676056 C10.6487125,1.38028169 10.8899454,2.13943662 10.8899454,3.07112676 L10.8899454,3.3471831 L6.82344682,3.3471831 C6.85790868,3.96830986 7.03021794,4.45140845 7.34037461,4.79647887 C7.65053129,5.1415493 8.02961167,5.31408451 8.47761575,5.31408451 C8.82223428,5.31408451 9.0979291,5.21056338 9.33916207,5.03802817 C9.47700948,4.79647887 9.68378059,4.48591549 9.821628,4.07183099 Z M6.75452312,2.51901408 L9.821628,2.51901408 C9.78716615,2.03591549 9.64931874,1.65633803 9.47700948,1.41478873 C9.1668528,1.03521127 8.78777242,0.862676056 8.33976834,0.862676056 C7.92622611,0.862676056 7.54714573,1.00070423 7.27145091,1.31126761 C6.96129423,1.58732394 6.78898497,2.00140845 6.75452312,2.51901408 Z M11.923801,5.93521127 L11.923801,0.172535211 L12.7508855,0.172535211 L12.7508855,1.00070423 C13.1644277,0.379577465 13.7502792,0.0345070423 14.50844,0.0345070423 C14.8530585,0.0345070423 15.1287533,0.103521127 15.4044481,0.207042254 C15.680143,0.345070423 15.8869141,0.483098592 16.0247615,0.690140845 C16.1626089,0.897183099 16.2659944,1.13873239 16.3004563,1.41478873 C16.3349182,1.58732394 16.3349182,1.89788732 16.3349182,2.38098592 L16.3349182,5.93521127 L15.4044481,5.93521127 L15.4044481,2.41549296 C15.4044481,2.00140845 15.3699863,1.72535211 15.3010626,1.51830986 C15.2321389,1.31126761 15.0942915,1.17323944 14.9219822,1.03521127 C14.7496729,0.931690141 14.50844,0.862676056 14.267207,0.862676056 C13.8881266,0.862676056 13.5435081,1.00070423 13.2333514,1.24225352 C12.9576566,1.51830986 12.8198092,2.00140845 12.8198092,2.76056338 L12.8198092,5.90070423 L11.923801,5.90070423 L11.923801,5.93521127 Z" transform="translate(59.619 5.521)"/>
    <path fill="#006838" fill-rule="nonzero" d="M79.98596,9.73098592 L80.91643,9.59295775 C80.9508919,9.97253521 81.1232011,10.2830986 81.3299722,10.4901408 C81.5712052,10.6971831 81.8813619,10.8007042 82.329366,10.8007042 C82.7429082,10.8007042 83.0875267,10.6971831 83.2942978,10.5246479 C83.501069,10.3521127 83.6044545,10.1450704 83.6044545,9.86901408 C83.6044545,9.66197183 83.501069,9.48943662 83.3287597,9.35140845 C83.1909123,9.24788732 82.8807556,9.1443662 82.3638278,9.00633803 C81.6745908,8.83380282 81.2265867,8.66126761 80.9508919,8.52323944 C80.675197,8.38521127 80.5028878,8.21267606 80.3650404,7.97112676 C80.227193,7.72957746 80.1582692,7.48802817 80.1582692,7.21197183 C80.1582692,6.97042254 80.227193,6.72887324 80.3305785,6.48732394 C80.4339641,6.28028169 80.6062733,6.07323944 80.7785826,5.93521127 C80.91643,5.83169014 81.1232011,5.72816901 81.3644341,5.65915493 C81.6056671,5.59014085 81.8813619,5.5556338 82.1570567,5.5556338 C82.5705989,5.5556338 82.9496793,5.62464789 83.2942978,5.76267606 C83.6044545,5.90070423 83.8456875,6.07323944 84.0179967,6.28028169 C84.1558442,6.48732394 84.2936916,6.79788732 84.3281534,7.17746479 L83.4321453,7.31549296 C83.3976834,7.00492958 83.259836,6.79788732 83.0875267,6.62535211 C82.8807556,6.4528169 82.6050608,6.38380282 82.2604423,6.38380282 C81.8469,6.38380282 81.5367434,6.4528169 81.3644341,6.59084507 C81.1921248,6.72887324 81.0887393,6.90140845 81.0887393,7.1084507 C81.0887393,7.24647887 81.1232011,7.35 81.1921248,7.45352113 C81.2610485,7.55704225 81.3988959,7.66056338 81.5367434,7.72957746 C81.6401289,7.76408451 81.9158237,7.83309859 82.3638278,7.97112676 C83.018603,8.14366197 83.4666071,8.31619718 83.7423019,8.41971831 C84.0179967,8.52323944 84.190306,8.69577465 84.3626153,8.93732394 C84.5004627,9.1443662 84.5693864,9.45492958 84.5693864,9.76549296 C84.5693864,10.0760563 84.4660008,10.3866197 84.2936916,10.6971831 C84.1213823,10.9732394 83.8456875,11.2147887 83.501069,11.3528169 C83.1564504,11.5253521 82.7773701,11.5943662 82.329366,11.5943662 C81.6056671,11.5943662 81.0887393,11.421831 80.7096589,11.1112676 C80.3305785,10.8007042 80.0893455,10.3521127 79.98596,9.73098592 Z"/>
    <path fill="#A7A9AC" fill-rule="nonzero" d="M0.172309263,3.07112676 C0.172309263,2.00140845 0.448004084,1.20774648 1.03385558,0.690140845 C1.51632152,0.276056338 2.06771116,0.0345070423 2.75694821,0.0345070423 C3.51510897,0.0345070423 4.13542232,0.31056338 4.61788825,0.828169014 C5.10035419,1.34577465 5.34158716,2.07042254 5.34158716,2.96760563 C5.34158716,3.69225352 5.2382016,4.27887324 5.03143049,4.72746479 C4.82465937,5.1415493 4.5145027,5.48661972 4.10096046,5.72816901 C3.68741823,5.96971831 3.23941415,6.07323944 2.79141006,6.07323944 C2.03324931,6.07323944 1.41293596,5.83169014 0.930470021,5.31408451 C0.413542232,4.76197183 0.172309263,4.03732394 0.172309263,3.07112676 Z M1.13724114,3.07112676 C1.13724114,3.79577465 1.27508855,4.34788732 1.58524522,4.72746479 C1.8954019,5.10704225 2.27448227,5.27957746 2.75694821,5.27957746 C3.2049523,5.27957746 3.58403267,5.10704225 3.89418935,4.72746479 C4.20434602,4.34788732 4.34219343,3.79577465 4.34219343,3.03661972 C4.34219343,2.31197183 4.20434602,1.7943662 3.89418935,1.41478873 C3.58403267,1.03521127 3.2049523,0.862676056 2.75694821,0.862676056 C2.30894413,0.862676056 1.8954019,1.03521127 1.58524522,1.41478873 C1.27508855,1.75985915 1.13724114,2.31197183 1.13724114,3.07112676 Z M9.99393727,5.93521127 L9.99393727,5.07253521 C9.58039503,5.72816901 8.99454354,6.03873239 8.27084463,6.03873239 C7.96068796,6.03873239 7.65053129,5.96971831 7.37483647,5.83169014 C7.09914164,5.69366197 6.89237053,5.52112676 6.75452312,5.34859155 C6.61667571,5.1415493 6.51329015,4.9 6.4788283,4.62394366 C6.44436644,4.41690141 6.40990459,4.14084507 6.40990459,3.72676056 L6.40990459,0.172535211 L7.34037461,0.172535211 L7.34037461,3.38169014 C7.34037461,3.89929577 7.37483647,4.2443662 7.40929832,4.41690141 C7.47822202,4.6584507 7.58160758,4.86549296 7.7883787,5.03802817 C7.96068796,5.17605634 8.20192093,5.24507042 8.47761575,5.24507042 C8.75331057,5.24507042 9.02900539,5.17605634 9.27023836,5.00352113 C9.51147133,4.83098592 9.68378059,4.6584507 9.78716615,4.38239437 C9.89055171,4.14084507 9.92501356,3.76126761 9.92501356,3.24366197 L9.92501356,0.172535211 L10.8554836,0.172535211 L10.8554836,5.93521127 L9.99393727,5.93521127 Z M12.2339577,5.93521127 L12.2339577,0.172535211 L13.0610422,0.172535211 L13.0610422,1.03521127 C13.2678133,0.621126761 13.4745844,0.345070423 13.6468936,0.241549296 C13.8192029,0.103521127 14.025974,0.0345070423 14.2327451,0.0345070423 C14.5429018,0.0345070423 14.8530585,0.138028169 15.197677,0.345070423 L14.8875203,1.24225352 C14.6462874,1.10422535 14.4395163,1.03521127 14.1982833,1.03521127 C13.9915122,1.03521127 13.8192029,1.10422535 13.6468936,1.24225352 C13.4745844,1.38028169 13.3711988,1.5528169 13.3022751,1.75985915 C13.1988896,2.10492958 13.1644277,2.48450704 13.1644277,2.89859155 L13.1644277,5.90070423 L12.2339577,5.90070423 L12.2339577,5.93521127 Z M19.3330993,3.83028169 L20.2291075,3.96830986 C20.1257219,4.62394366 19.884489,5.1415493 19.4709467,5.52112676 C19.0574045,5.90070423 18.5404767,6.07323944 17.9546252,6.07323944 C17.1964645,6.07323944 16.610613,5.83169014 16.1626089,5.31408451 C15.7146048,4.79647887 15.4733718,4.07183099 15.4733718,3.1056338 C15.4733718,2.48450704 15.5767574,1.93239437 15.7835285,1.48380282 C15.9902996,1.00070423 16.2659944,0.655633803 16.6795367,0.448591549 C17.0930789,0.207042254 17.5066211,0.103521127 17.9890871,0.103521127 C18.5749386,0.103521127 19.0574045,0.276056338 19.4364849,0.586619718 C19.8155653,0.897183099 20.0567982,1.34577465 20.1601838,1.93239437 L19.2641756,2.07042254 C19.1952519,1.69084507 19.0229427,1.38028169 18.8161715,1.20774648 C18.6094004,1.00070423 18.3337056,0.931690141 18.0235489,0.931690141 C17.541083,0.931690141 17.1620026,1.10422535 16.8863078,1.44929577 C16.610613,1.7943662 16.4383037,2.34647887 16.4383037,3.1056338 C16.4383037,3.86478873 16.5761511,4.45140845 16.8518459,4.79647887 C17.1275408,5.1415493 17.5066211,5.31408451 17.9546252,5.31408451 C18.3337056,5.31408451 18.6094004,5.21056338 18.8506334,4.96901408 C19.1263282,4.69295775 19.2986375,4.31338028 19.3330993,3.83028169 Z M24.8125339,4.07183099 L25.7774658,4.20985915 C25.6396184,4.79647887 25.3294617,5.24507042 24.9503813,5.59014085 C24.5368391,5.90070423 24.0199113,6.07323944 23.3995979,6.07323944 C22.6069753,6.07323944 21.9522001,5.7971831 21.504196,5.27957746 C21.0217301,4.76197183 20.814959,4.03732394 20.814959,3.1056338 C20.814959,2.13943662 21.056192,1.38028169 21.5386579,0.862676056 C22.0211238,0.31056338 22.6414372,0.0690140845 23.3995979,0.0690140845 C24.1232969,0.0690140845 24.7436102,0.345070423 25.1916143,0.862676056 C25.6396184,1.38028169 25.8808513,2.13943662 25.8808513,3.07112676 L25.8808513,3.3471831 L21.7109672,3.3471831 C21.745429,3.96830986 21.9177383,4.45140845 22.227895,4.79647887 C22.5380516,5.1415493 22.917132,5.31408451 23.3651361,5.31408451 C23.7097546,5.31408451 23.9854494,5.21056338 24.2266824,5.03802817 C24.4679154,4.79647887 24.6746865,4.48591549 24.8125339,4.07183099 Z M21.745429,2.51901408 L24.8125339,2.51901408 C24.7780721,2.03591549 24.6402246,1.65633803 24.4679154,1.41478873 C24.1577587,1.03521127 23.7786783,0.862676056 23.3306742,0.862676056 C22.917132,0.862676056 22.5380516,1.00070423 22.2623568,1.31126761 C21.9522001,1.58732394 21.7798909,2.00140845 21.745429,2.51901408 Z" transform="translate(85.12 5.521)"/>
    <path fill="#006838" fill-rule="nonzero" d="M4.13542232,5.90070423 L5.03143049,6.03873239 C4.92804493,6.6943662 4.68681196,7.21197183 4.27326973,7.5915493 C3.8597275,7.97112676 3.34279971,8.14366197 2.75694821,8.14366197 C1.99878745,8.14366197 1.41293596,7.90211268 0.964931874,7.38450704 C0.51692779,6.86690141 0.275694821,6.14225352 0.275694821,5.17605634 C0.275694821,4.55492958 0.379080379,4.0028169 0.585851495,3.55422535 C0.792622611,3.07112676 1.06831743,2.72605634 1.48185966,2.51901408 C1.8954019,2.27746479 2.30894413,2.17394366 2.79141006,2.17394366 C3.37726156,2.17394366 3.8597275,2.34647887 4.23880788,2.65704225 C4.61788825,2.96760563 4.85912122,3.41619718 4.96250678,4.0028169 L4.06649861,4.14084507 C3.99757491,3.76126761 3.82526564,3.45070423 3.61849453,3.27816901 C3.41172341,3.07112676 3.13602859,3.00211268 2.82587192,3.00211268 C2.34340598,3.00211268 1.9643256,3.17464789 1.68863078,3.51971831 C1.41293596,3.86478873 1.2406267,4.41690141 1.2406267,5.17605634 C1.2406267,5.93521127 1.37847411,6.52183099 1.65416893,6.86690141 C1.92986375,7.21197183 2.30894413,7.38450704 2.75694821,7.38450704 C3.13602859,7.38450704 3.41172341,7.28098592 3.65295638,7.03943662 C3.9286512,6.76338028 4.06649861,6.38380282 4.13542232,5.90070423 Z M5.85851495,8.0056338 L5.85851495,0.0690140845 L6.78898497,0.0690140845 L6.78898497,2.93309859 C7.23698906,2.41549296 7.75391684,2.13943662 8.4431539,2.13943662 C8.85669613,2.13943662 9.20131466,2.2084507 9.51147133,2.38098592 C9.821628,2.55352113 10.0283991,2.79507042 10.1662465,3.07112676 C10.3040939,3.38169014 10.3730176,3.79577465 10.3730176,4.34788732 L10.3730176,8.0056338 L9.44254762,8.0056338 L9.44254762,4.34788732 C9.44254762,3.86478873 9.33916207,3.51971831 9.13239095,3.27816901 C8.92561983,3.07112676 8.64992501,2.93309859 8.27084463,2.93309859 C7.99514981,2.93309859 7.75391684,3.00211268 7.47822202,3.17464789 C7.23698906,3.31267606 7.06467979,3.51971831 6.96129423,3.79577465 C6.85790868,4.03732394 6.82344682,4.41690141 6.82344682,4.86549296 L6.82344682,8.0056338 L5.85851495,8.0056338 Z M11.7170299,1.17323944 L11.7170299,0.0345070423 L12.6474999,0.0345070423 L12.6474999,1.17323944 L11.7170299,1.17323944 Z M11.7170299,8.0056338 L11.7170299,2.24295775 L12.6474999,2.24295775 L12.6474999,8.0056338 L11.7170299,8.0056338 Z M14.0604359,8.0056338 L14.0604359,2.24295775 L14.8875203,2.24295775 L14.8875203,3.07112676 C15.3010626,2.45 15.8869141,2.10492958 16.6450748,2.10492958 C16.9896934,2.10492958 17.2653882,2.17394366 17.541083,2.27746479 C17.8167778,2.41549296 18.0235489,2.55352113 18.1613963,2.76056338 C18.2992438,2.96760563 18.4026293,3.20915493 18.4370912,3.48521127 C18.471553,3.65774648 18.471553,3.96830986 18.471553,4.45140845 L18.471553,8.0056338 L17.5755448,8.0056338 L17.5755448,4.48591549 C17.5755448,4.07183099 17.541083,3.79577465 17.4721593,3.58873239 C17.4032356,3.38169014 17.2653882,3.24366197 17.0930789,3.1056338 C16.9207696,3.00211268 16.6795367,2.93309859 16.4383037,2.93309859 C16.0592233,2.93309859 15.7146048,3.07112676 15.4044481,3.31267606 C15.1287533,3.58873239 14.9909059,4.07183099 14.9909059,4.83098592 L14.9909059,7.97112676 L14.0604359,7.97112676 L14.0604359,8.0056338 Z M23.5029835,7.31549296 C23.158365,7.62605634 22.8137465,7.83309859 22.5035898,7.97112676 C22.1934331,8.10915493 21.8488146,8.14366197 21.4697342,8.14366197 C20.8838827,8.14366197 20.4014168,8.0056338 20.0912601,7.69507042 C19.7811034,7.38450704 19.6087942,7.00492958 19.6087942,6.52183099 C19.6087942,6.24577465 19.6777179,5.96971831 19.7811034,5.76267606 C19.9189508,5.52112676 20.0567982,5.34859155 20.2635694,5.21056338 C20.4703405,5.07253521 20.6771116,4.96901408 20.9183446,4.9 C21.0906538,4.86549296 21.3663486,4.79647887 21.745429,4.76197183 C22.5035898,4.6584507 23.0549794,4.55492958 23.3995979,4.41690141 L23.3995979,4.17535211 C23.3995979,3.76126761 23.2962124,3.48521127 23.1239031,3.3471831 C22.8826702,3.14014085 22.5380516,3.00211268 22.0555857,3.00211268 C21.6075816,3.00211268 21.2974249,3.07112676 21.0906538,3.24366197 C20.8838827,3.41619718 20.7460353,3.69225352 20.6426497,4.10633803 L19.7466416,3.96830986 C19.8155653,3.55422535 19.9534127,3.24366197 20.1601838,2.96760563 C20.3324931,2.72605634 20.6081879,2.51901408 20.9872683,2.38098592 C21.3318868,2.24295775 21.745429,2.17394366 22.227895,2.17394366 C22.7103609,2.17394366 23.0894413,2.24295775 23.3651361,2.34647887 C23.6408309,2.45 23.8820639,2.62253521 24.0199113,2.79507042 C24.1577587,2.96760563 24.2611443,3.17464789 24.2956061,3.45070423 C24.330068,3.62323944 24.330068,3.93380282 24.330068,4.34788732 L24.330068,5.65915493 C24.330068,6.55633803 24.3645298,7.14295775 24.3989917,7.38450704 C24.4334535,7.62605634 24.5023772,7.86760563 24.6402246,8.07464789 L23.6752928,8.07464789 C23.6063691,7.79859155 23.5374454,7.55704225 23.5029835,7.31549296 Z M23.4340598,5.10704225 C23.0894413,5.24507042 22.6069753,5.38309859 21.9177383,5.48661972 C21.5386579,5.5556338 21.2629631,5.62464789 21.1251157,5.69366197 C20.9528064,5.76267606 20.8494208,5.86619718 20.7460353,6.00422535 C20.6771116,6.14225352 20.6081879,6.31478873 20.6081879,6.4528169 C20.6081879,6.72887324 20.7115734,6.93591549 20.8838827,7.1084507 C21.056192,7.28098592 21.3318868,7.38450704 21.7109672,7.38450704 C22.0555857,7.38450704 22.4002042,7.31549296 22.675899,7.14295775 C22.9515939,6.97042254 23.158365,6.76338028 23.2962124,6.4528169 C23.3995979,6.24577465 23.4340598,5.90070423 23.4340598,5.48661972 L23.4340598,5.10704225 Z" transform="translate(114.413 3.45)"/>
    <g fill-rule="nonzero" transform="translate(52.382 13.803)">
      <path fill="#3CAB52" d="M2.20555857,3.93380282 C1.75755448,3.93380282 1.44739781,3.83028169 1.2406267,3.65774648 C1.06831743,3.48521127 0.964931874,3.14014085 0.964931874,2.6915493 C0.964931874,2.27746479 1.06831743,2.00140845 1.2406267,1.82887324 C1.41293596,1.65633803 1.75755448,1.5528169 2.20555857,1.5528169 L18.2992438,1.5528169 C18.7817097,1.5528169 19.0918664,1.65633803 19.2641756,1.82887324 C19.4364849,2.00140845 19.5054086,2.31197183 19.5054086,2.6915493 C19.5054086,3.14014085 19.4364849,3.45070423 19.2641756,3.65774648 C19.0918664,3.83028169 18.7817097,3.93380282 18.2992438,3.93380282 L15.8869141,3.93380282 L15.8869141,9.66197183 L19.4709467,9.66197183 C19.9534127,9.66197183 20.2635694,9.73098592 20.4358786,9.90352113 C20.6081879,10.0760563 20.6771116,10.3176056 20.6771116,10.6971831 C20.6771116,11.1112676 20.6081879,11.421831 20.4358786,11.6288732 C20.2635694,11.8359155 19.9534127,11.9394366 19.4709467,11.9394366 L15.8869141,11.9394366 L15.8869141,19.3929577 C15.8869141,19.8760563 15.7490667,20.1866197 15.5078337,20.3591549 C15.2321389,20.5316901 14.956444,20.6007042 14.5773637,20.6007042 C14.1982833,20.6007042 13.8881266,20.4971831 13.6468936,20.3246479 C13.3711988,20.1521127 13.2678133,19.8070423 13.2678133,19.3584507 L13.2678133,11.9049296 L7.47822202,11.9049296 C7.40929832,12.9401408 7.27145091,13.871831 7.03021794,14.7 C6.82344682,15.528169 6.51329015,16.2528169 6.13420977,16.9084507 C5.75512939,17.5640845 5.30712531,18.1852113 4.75573566,18.7028169 C4.20434602,19.2549296 3.58403267,19.8070423 2.89479562,20.3246479 C2.48125339,20.6352113 2.10217301,20.7732394 1.72309263,20.7387324 C1.34401225,20.7042254 1.06831743,20.5316901 0.861546316,20.1521127 C0.620313348,19.7725352 0.51692779,19.4619718 0.620313348,19.1514085 C0.723698906,18.8408451 0.964931874,18.5302817 1.3095504,18.2542254 C1.86094004,17.8401408 2.37786783,17.4260563 2.79141006,17.0464789 C3.2049523,16.6669014 3.54957082,16.2183099 3.8597275,15.7352113 C4.13542232,15.2521127 4.37665529,14.7 4.54896455,14.0788732 C4.72127381,13.4577465 4.82465937,12.7330986 4.89358308,11.9049296 L1.41293596,11.9049296 C0.930470021,11.9049296 0.620313348,11.8014085 0.448004084,11.5943662 C0.275694821,11.3873239 0.206771116,11.0767606 0.206771116,10.6626761 C0.206771116,10.2830986 0.275694821,10.0415493 0.448004084,9.86901408 C0.620313348,9.69647887 0.930470021,9.62746479 1.41293596,9.62746479 L4.96250678,9.62746479 L4.96250678,3.89929577 L2.20555857,3.89929577 L2.20555857,3.93380282 Z M7.47822202,9.66197183 L13.1988896,9.66197183 L13.1988896,3.93380282 L7.47822202,3.93380282 L7.47822202,9.66197183 Z M25.8463895,9.8 C25.5706947,10.0760563 25.260538,10.1795775 24.9503813,10.1450704 C24.6402246,10.1105634 24.2956061,9.90352113 23.8820639,9.52394366 C23.7097546,9.42042254 23.4340598,9.21338028 23.1239031,8.93732394 C22.8137465,8.66126761 22.4691279,8.41971831 22.1245094,8.14366197 C21.8143527,7.83309859 21.6075816,7.55704225 21.5386579,7.28098592 C21.4697342,7.00492958 21.5731198,6.6943662 21.8488146,6.28028169 C22.3312805,5.65915493 22.9515939,5.65915493 23.7442165,6.21126761 C24.0199113,6.4528169 24.3645298,6.6943662 24.7091483,6.97042254 C25.0882287,7.24647887 25.3983854,7.48802817 25.6396184,7.72957746 C25.949775,8.04014085 26.1565462,8.35070423 26.2599317,8.69577465 C26.3977791,9.07535211 26.2599317,9.42042254 25.8463895,9.8 Z M26.3633173,13.5957746 C26.0876225,14.7 25.7774658,15.7697183 25.4673091,16.7359155 C25.1571524,17.7366197 24.7436102,18.7028169 24.2611443,19.6690141 C24.0543731,20.0830986 23.7786783,20.3591549 23.3995979,20.4626761 C23.0205176,20.5661972 22.675899,20.5316901 22.3657424,20.3591549 C22.0211238,20.1521127 21.8143527,19.9105634 21.745429,19.6 C21.6765053,19.2894366 21.7798909,18.8408451 22.0900475,18.3232394 C22.5035898,17.5640845 22.8482083,16.7359155 23.1239031,15.8387324 C23.3995979,14.9415493 23.6752928,13.9753521 23.9509876,12.9401408 C24.0543731,12.4570423 24.2266824,12.1119718 24.4679154,11.9394366 C24.7091483,11.7669014 25.019305,11.6978873 25.4673091,11.8014085 C25.8808513,11.8704225 26.191008,12.0429577 26.3288554,12.3190141 C26.5011647,12.5605634 26.5356265,13.0091549 26.3633173,13.5957746 Z M26.7423977,4.79647887 C26.4667028,5.07253521 26.1565462,5.17605634 25.8808513,5.1415493 C25.5706947,5.10704225 25.2260761,4.9 24.8125339,4.55492958 C24.5368391,4.31338028 24.2266824,4.03732394 23.8820639,3.76126761 C23.5374454,3.48521127 23.2617505,3.24366197 23.0549794,3.07112676 C22.7103609,2.79507042 22.5035898,2.51901408 22.4691279,2.24295775 C22.4346661,1.96690141 22.5035898,1.65633803 22.7792846,1.27676056 C23.0205176,0.966197183 23.2962124,0.793661972 23.6408309,0.75915493 C23.9854494,0.724647887 24.330068,0.862676056 24.6746865,1.13873239 C24.9503813,1.34577465 25.1571524,1.51830986 25.3639235,1.65633803 C25.5706947,1.82887324 25.7085421,1.96690141 25.8463895,2.07042254 C25.9842369,2.2084507 26.1220843,2.31197183 26.2254699,2.41549296 C26.3288554,2.51901408 26.4667028,2.62253521 26.6045502,2.76056338 C26.9147069,3.07112676 27.121478,3.38169014 27.2248636,3.72676056 C27.3282491,4.03732394 27.1904017,4.38239437 26.8113214,4.76197183 L26.7423977,4.79647887 Z M32.979993,4.76197183 C32.2562941,4.76197183 31.7738281,4.93450704 31.4981333,5.24507042 C31.2224385,5.59014085 31.0845911,6.10774648 31.0845911,6.83239437 L31.0845911,11.5253521 C31.0845911,12.9056338 31.7049044,13.5957746 32.979993,13.5957746 L34.9098567,13.5957746 L34.9098567,17.6330986 C34.9098567,17.8401408 34.8753949,17.978169 34.7720093,18.0471831 C34.6686238,18.1161972 34.3929289,18.0816901 33.9449249,17.943662 C33.4624589,17.8056338 33.1178404,17.7711268 32.9110693,17.8746479 C32.7042982,17.978169 32.5664507,18.2197183 32.4630652,18.5647887 C32.3596796,18.9788732 32.3596796,19.3239437 32.5319889,19.565493 C32.6698363,19.8415493 33.0144548,20.0140845 33.5313826,20.0830986 C34.2206197,20.2211268 34.8064712,20.2901408 35.2200134,20.2901408 C35.6335556,20.2901408 36.012636,20.2211268 36.2883308,20.0140845 C36.5640257,19.8415493 36.7363349,19.5309859 36.8397205,19.1514085 C36.943106,18.771831 37.0120297,18.2542254 37.0120297,17.5985915 L37.0120297,13.5612676 L38.9418935,13.5612676 C39.6655924,13.5612676 40.1825202,13.4232394 40.458215,13.1126761 C40.7683717,12.8021127 40.9062191,12.284507 40.9062191,11.4908451 L40.9062191,6.79788732 C40.9062191,6.07323944 40.7683717,5.52112676 40.4926769,5.21056338 C40.216982,4.86549296 39.7345161,4.72746479 39.045279,4.72746479 L36.7707968,4.72746479 C36.8397205,4.62394366 36.8741823,4.55492958 36.8741823,4.52042254 C36.9086442,4.48591549 36.9086442,4.45140845 36.943106,4.45140845 C37.184339,3.93380282 37.184339,3.51971831 36.9775679,3.24366197 L40.699448,3.24366197 C41.1474521,3.24366197 41.4231469,3.17464789 41.5954561,3.00211268 C41.7333036,2.82957746 41.8366891,2.55352113 41.8366891,2.17394366 C41.8366891,1.7943662 41.7677654,1.51830986 41.629918,1.31126761 C41.4920706,1.10422535 41.1819139,1.03521127 40.7339098,1.03521127 L29.706117,1.03521127 C28.9824181,1.03521127 28.4654903,1.20774648 28.1553336,1.5528169 C27.8451769,1.89788732 27.6728677,2.48450704 27.6728677,3.27816901 L27.6728677,8.73028169 C27.6728677,10.0070423 27.6728677,11.1112676 27.6384058,12.0084507 C27.603944,12.9401408 27.5694821,13.7338028 27.5005584,14.4584507 C27.4316347,15.1485915 27.3282491,15.7697183 27.1904017,16.321831 C27.0525543,16.8739437 26.8802451,17.3570423 26.6734739,17.8401408 C26.5700884,18.0816901 26.4667028,18.3232394 26.3977791,18.4957746 C26.3288554,18.7028169 26.2943936,18.8753521 26.2943936,19.0133803 C26.2943936,19.1859155 26.3288554,19.3239437 26.432241,19.4619718 C26.5011647,19.6 26.6390121,19.7380282 26.8113214,19.8415493 C27.121478,20.0485915 27.4316347,20.1176056 27.7073295,20.0485915 C27.9830243,20.0140845 28.2587192,19.7380282 28.4999521,19.2204225 C28.775647,18.5992958 29.0168799,17.943662 29.1891892,17.2535211 C29.3614985,16.5633803 29.5338077,15.7697183 29.6371933,14.9415493 C29.7405788,14.0788732 29.8095025,13.1816901 29.8439644,12.1464789 C29.8784262,11.1457746 29.9128881,10.0070423 29.9128881,8.79929577 L29.9128881,3.79577465 C29.9128881,3.55422535 29.9473499,3.41619718 30.0162737,3.3471831 C30.0851974,3.27816901 30.1541211,3.24366197 30.2575066,3.24366197 L35.1510897,3.24366197 C35.1166278,3.31267606 35.082166,3.3471831 35.082166,3.41619718 C35.0477041,3.45070423 35.0132423,3.51971831 35.0132423,3.58873239 C34.8064712,4.0028169 34.5997001,4.38239437 34.3584671,4.72746479 L32.979993,4.76197183 Z M33.2901497,15.7007042 C33.4624589,15.2521127 33.5313826,14.9070423 33.4969208,14.6309859 C33.4624589,14.3549296 33.2556878,14.1823944 32.8766074,14.0098592 C32.5319889,13.871831 32.2562941,13.8373239 32.049523,13.9753521 C31.8427518,14.1133803 31.6359807,14.3549296 31.4981333,14.734507 C31.3602859,15.1140845 31.2224385,15.4591549 31.1190529,15.7352113 C31.0156674,16.0112676 30.87782,16.2873239 30.7399726,16.5288732 C30.6021251,16.7704225 30.4642777,17.0119718 30.2919685,17.2880282 C30.1196592,17.5640845 29.9473499,17.8401408 29.7405788,18.1852113 C29.4993459,18.5647887 29.3614985,18.9098592 29.3959603,19.1859155 C29.4304222,19.4619718 29.5338077,19.7035211 29.7750407,19.9105634 C30.0851974,20.1521127 30.3608922,20.2211268 30.636587,20.1176056 C30.9122818,20.0140845 31.1535148,19.8070423 31.3602859,19.4964789 C31.7393663,18.8753521 32.1184467,18.2197183 32.4630652,17.5985915 C32.7732219,16.9774648 33.0489167,16.356338 33.2901497,15.7007042 Z M38.6661987,8.17816901 L33.2901497,8.17816901 L33.2901497,7.17746479 C33.2901497,7.00492958 33.3246115,6.93591549 33.3590734,6.90140845 C33.3935352,6.86690141 33.4969208,6.83239437 33.5658445,6.83239437 L38.3215801,6.83239437 C38.5283513,6.83239437 38.6317368,6.93591549 38.6317368,7.17746479 L38.6661987,8.17816901 Z M38.6661987,11.1802817 C38.6661987,11.456338 38.5628131,11.5943662 38.356042,11.5943662 L33.6003063,11.5943662 C33.3935352,11.5943662 33.2901497,11.456338 33.2901497,11.1802817 L33.2901497,10.1450704 L38.6661987,10.1450704 L38.6661987,11.1802817 Z M41.3542232,17.8401408 C41.1819139,17.4950704 41.0096046,17.184507 40.8717572,16.9429577 C40.7339098,16.7014085 40.5616006,16.4253521 40.4237532,16.1838028 C40.2859057,15.9422535 40.1135965,15.7007042 39.9412872,15.4246479 C39.768978,15.1830986 39.5622068,14.8725352 39.3554357,14.5619718 C39.1142028,14.2169014 38.8385079,14.0443662 38.5283513,14.0098592 C38.2526564,13.9753521 37.9769616,14.0788732 37.7701905,14.3204225 C37.6323431,14.4584507 37.5289575,14.5964789 37.4944957,14.7690141 C37.4600338,14.9070423 37.425572,15.0795775 37.4600338,15.2176056 C37.4600338,15.3556338 37.5289575,15.493662 37.5634194,15.6316901 C37.6323431,15.7697183 37.7012668,15.8732394 37.7701905,16.0112676 C37.9424998,16.2528169 38.114809,16.4943662 38.2526564,16.7014085 C38.3905038,16.9084507 38.5283513,17.15 38.7006605,17.3915493 C38.8385079,17.6330986 38.9763553,17.8746479 39.1486646,18.1507042 C39.3209739,18.4267606 39.4588213,18.7028169 39.6311305,19.0478873 C39.8379017,19.4619718 40.0446728,19.7035211 40.2514439,19.8070423 C40.458215,19.9105634 40.7339098,19.8760563 41.0440665,19.7380282 C41.4231469,19.565493 41.5954561,19.3239437 41.629918,19.0133803 C41.6988417,18.6338028 41.5954561,18.2542254 41.3542232,17.8401408 Z M51.4170841,1.38028169 C51.4170841,0.897183099 51.5204697,0.586619718 51.7272408,0.414084507 C51.9340119,0.241549296 52.2441686,0.172535211 52.7266345,0.172535211 C53.1746386,0.172535211 53.4847953,0.241549296 53.6915664,0.414084507 C53.8983375,0.586619718 54.0017231,0.897183099 54.0017231,1.38028169 L54.0017231,4.03732394 L59.2054628,4.03732394 C59.7223906,4.03732394 60.1359329,4.07183099 60.4805514,4.10633803 C60.8251699,4.14084507 61.031941,4.27887324 61.2042503,4.45140845 C61.3765596,4.62394366 61.514407,4.86549296 61.5488688,5.17605634 C61.6177925,5.48661972 61.6522544,5.90070423 61.6522544,6.41830986 L61.6522544,12.8366197 C61.6522544,13.2852113 61.6177925,13.6992958 61.5833307,13.9753521 C61.514407,14.2859155 61.4110214,14.5274648 61.2387121,14.7 C61.0664029,14.8725352 60.8251699,14.9760563 60.5150132,15.0450704 C60.2048566,15.1140845 59.7913143,15.1485915 59.2399247,15.1485915 L54.0017231,15.1485915 L54.0017231,19.4964789 C54.0017231,19.8760563 53.8983375,20.1521127 53.7260283,20.3591549 C53.553719,20.5661972 53.2091005,20.7042254 52.7266345,20.7042254 C52.1752449,20.7042254 51.8306264,20.6007042 51.6583171,20.428169 C51.4860078,20.2556338 51.4170841,19.9105634 51.4170841,19.4619718 L51.4170841,15.1140845 L46.31673,15.1140845 C45.7998022,15.1140845 45.3862599,15.0795775 45.0761033,15.0105634 C44.7659466,14.9415493 44.5247136,14.8035211 44.3524044,14.6309859 C44.1800951,14.4584507 44.0767095,14.2169014 44.0077858,13.906338 C43.9388621,13.5957746 43.9388621,13.2161972 43.9388621,12.7676056 L43.9388621,6.31478873 C43.9388621,5.83169014 43.973324,5.45211268 44.0077858,5.1415493 C44.0767095,4.83098592 44.1800951,4.58943662 44.3524044,4.41690141 C44.5247136,4.2443662 44.7659466,4.14084507 45.0761033,4.07183099 C45.3862599,4.0028169 45.7998022,3.96830986 46.31673,3.96830986 L51.4170841,3.96830986 L51.4170841,1.38028169 Z M46.9715052,6.55633803 C46.764734,6.55633803 46.6268866,6.59084507 46.5579629,6.65985915 C46.4890392,6.72887324 46.4890392,6.90140845 46.4890392,7.17746479 L46.4890392,11.8704225 C46.4890392,12.215493 46.5235011,12.4225352 46.5924248,12.4915493 C46.6613485,12.5605634 46.7991959,12.5950704 47.0404289,12.5950704 L51.451546,12.5950704 L51.451546,6.55633803 L46.9715052,6.55633803 Z M54.0017231,6.55633803 L54.0017231,12.6295775 L58.5162258,12.6295775 C58.7919206,12.6295775 58.9642299,12.5950704 59.0331536,12.4915493 C59.1020773,12.4225352 59.1020773,12.215493 59.1020773,11.8704225 L59.1020773,7.17746479 C59.1020773,6.90140845 59.0676154,6.72887324 58.9642299,6.65985915 C58.8608443,6.59084507 58.6540732,6.55633803 58.3439165,6.55633803 L54.0017231,6.55633803 Z M83.259836,17.6330986 C83.259836,18.4267606 83.0875267,19.0133803 82.7773701,19.3929577 C82.4672134,19.7725352 81.8813619,19.9450704 81.0198156,19.9450704 L66.6836849,19.9450704 C65.8221385,19.9450704 65.2707489,19.7725352 64.9605922,19.3929577 C64.6504356,19.0133803 64.5125881,18.4267606 64.5125881,17.6330986 L64.5125881,3.27816901 C64.5125881,2.48450704 64.6504356,1.89788732 64.9261304,1.5528169 C65.2018252,1.20774648 65.7876767,1.03521127 66.6147612,1.03521127 L81.0198156,1.03521127 C81.8813619,1.03521127 82.4672134,1.20774648 82.7773701,1.5528169 C83.0875267,1.89788732 83.259836,2.48450704 83.259836,3.27816901 L83.259836,17.6330986 Z M67.3384601,3.31267606 C67.1661508,3.31267606 67.0283034,3.3471831 66.9249178,3.45070423 C66.8559941,3.51971831 66.7870704,3.69225352 66.7870704,3.93380282 L66.7870704,16.8049296 C66.7870704,17.3915493 67.0283034,17.6676056 67.5107693,17.6676056 L80.3650404,17.6676056 C80.5373496,17.6676056 80.675197,17.5985915 80.7785826,17.4260563 C80.8819682,17.2535211 80.91643,17.0464789 80.91643,16.8049296 L80.91643,3.93380282 C80.91643,3.72676056 80.8475063,3.58873239 80.7441207,3.48521127 C80.6407352,3.38169014 80.4339641,3.3471831 80.1238074,3.3471831 L67.3384601,3.3471831 L67.3384601,3.31267606 Z M69.0270908,6.97042254 C68.5446249,6.97042254 68.2000064,6.90140845 68.0276971,6.72887324 C67.8553879,6.55633803 67.7864642,6.28028169 67.7864642,5.86619718 C67.7864642,5.41760563 67.8553879,5.10704225 68.0276971,4.96901408 C68.2000064,4.83098592 68.5446249,4.76197183 69.0270908,4.76197183 L78.7108714,4.76197183 C79.2277992,4.76197183 79.5724178,4.83098592 79.7102652,4.96901408 C79.8481126,5.10704225 79.9514981,5.41760563 79.9514981,5.86619718 C79.9514981,6.28028169 79.8825744,6.59084507 79.7102652,6.72887324 C79.5379559,6.86690141 79.1933374,6.93591549 78.7108714,6.93591549 L74.6788347,6.93591549 L74.6788347,8.9028169 L77.9871725,8.9028169 C78.4696385,8.9028169 78.814257,8.97183099 78.9865663,9.10985915 C79.1588755,9.24788732 79.2622611,9.52394366 79.2622611,9.93802817 C79.2622611,10.3521127 79.1588755,10.628169 78.9865663,10.7661972 C78.814257,10.9042254 78.4696385,10.9732394 77.9871725,10.9732394 L77.5391684,10.9732394 C77.8148633,11.2838028 78.0560962,11.5598592 78.2628674,11.8014085 C78.4696385,12.0429577 78.6764096,12.3535211 78.9521044,12.6985915 C79.1588755,12.9401408 79.2277992,13.2161972 79.2277992,13.4577465 C79.2277992,13.6992958 79.1244137,13.906338 78.9176426,14.1133803 L79.05549,14.1133803 C79.5379559,14.1133803 79.8825744,14.2169014 80.0548837,14.3894366 C80.227193,14.5619718 80.2961167,14.8725352 80.2961167,15.2521127 C80.2961167,15.6661972 80.227193,15.9422535 80.0548837,16.0802817 C79.8825744,16.2183099 79.5379559,16.2873239 79.05549,16.2873239 L68.751396,16.2873239 C68.2689301,16.2873239 67.9243116,16.2183099 67.7520023,16.0802817 C67.579693,15.9422535 67.5107693,15.6661972 67.5107693,15.2521127 C67.5107693,14.8380282 67.579693,14.5619718 67.7520023,14.3894366 C67.9243116,14.2169014 68.2689301,14.1133803 68.751396,14.1133803 L72.3354287,14.1133803 L72.3354287,10.9732394 L69.6129423,10.9732394 C69.0960146,10.9732394 68.751396,10.9042254 68.6135486,10.7661972 C68.4757012,10.628169 68.3723156,10.3521127 68.3723156,9.93802817 C68.3723156,9.52394366 68.4412394,9.24788732 68.6135486,9.10985915 C68.7858579,8.97183099 69.1304764,8.9028169 69.6129423,8.9028169 L72.3354287,8.9028169 L72.3354287,6.93591549 L69.0270908,6.93591549 L69.0270908,6.97042254 Z M75.9883851,12.6295775 C75.7126903,12.3190141 75.5748428,12.0084507 75.5748428,11.7669014 C75.5748428,11.5253521 75.6782284,11.2838028 75.8849995,11.0767606 L74.6788347,11.0767606 L74.6788347,14.2169014 L77.3323973,14.2169014 L77.1945499,14.0788732 C77.1256262,14.0098592 77.1256262,13.9753521 77.0567025,13.9408451 C76.9188551,13.7683099 76.8154695,13.6647887 76.7465458,13.5612676 C76.6776221,13.4577465 76.6086984,13.3887324 76.5397747,13.2852113 C76.470851,13.2161972 76.4019273,13.1126761 76.3330036,13.0091549 C76.2640799,12.9056338 76.1262325,12.7676056 75.9883851,12.6295775 Z"/>
      <path fill="#000" d="M90.8069817,19.565493 C90.8069817,19.9795775 90.738058,20.2556338 90.5657487,20.428169 C90.3934395,20.6007042 90.048821,20.7042254 89.566355,20.7042254 C89.1872746,20.7042254 88.877118,20.6352113 88.6703469,20.4626761 C88.4291139,20.2901408 88.3257283,20.0140845 88.3257283,19.565493 L88.3257283,12.5260563 C88.1189572,12.6985915 87.9466479,12.9056338 87.7398768,13.078169 C87.5331057,13.2507042 87.3607965,13.4232394 87.1540253,13.5957746 C86.7404831,13.9753521 86.3269409,14.1478873 85.9478605,14.1823944 C85.5687801,14.2169014 85.2586234,14.0443662 84.9829286,13.6647887 C84.7416957,13.3542254 84.6727719,13.078169 84.7416957,12.8021127 C84.8106194,12.5260563 85.0863142,12.215493 85.5343183,11.8704225 C86.4992501,11.1112676 87.3607965,10.3176056 88.0844954,9.52394366 C88.8081943,8.69577465 89.3940458,7.86760563 89.9109735,7.00492958 C90.0832828,6.65985915 89.9798973,6.48732394 89.6008169,6.48732394 L86.4647883,6.48732394 C85.9823223,6.48732394 85.6377038,6.38380282 85.4653946,6.21126761 C85.2930853,6.00422535 85.1896997,5.72816901 85.1896997,5.31408451 C85.1896997,4.93450704 85.2930853,4.62394366 85.4998564,4.45140845 C85.7066275,4.2443662 86.0167842,4.14084507 86.4647883,4.14084507 L88.8081943,4.14084507 C88.7392706,4.07183099 88.635885,3.96830986 88.4980376,3.79577465 C88.2568046,3.41619718 88.0155717,3.1056338 87.7743387,2.79507042 C87.5331057,2.48450704 87.2918727,2.17394366 87.0506398,1.86338028 C86.8438687,1.62183099 86.774945,1.38028169 86.8094068,1.13873239 C86.8783305,0.897183099 87.0161779,0.690140845 87.2574109,0.517605634 C87.5331057,0.31056338 87.8432624,0.241549296 88.2223428,0.276056338 C88.5669613,0.31056338 88.877118,0.448591549 89.0838891,0.724647887 C89.1872746,0.862676056 89.2906602,1.00070423 89.3940458,1.13873239 C89.4974313,1.27676056 89.6008169,1.41478873 89.7042024,1.5528169 C89.807588,1.69084507 89.9454354,1.86338028 90.0832828,2.07042254 C90.2211302,2.27746479 90.3934395,2.48450704 90.6002106,2.76056338 C90.7725199,3.00211268 90.8759054,3.24366197 90.8414436,3.51971831 C90.8069817,3.79577465 90.7035962,4.0028169 90.496825,4.14084507 L91.0482147,4.14084507 C91.9786847,4.14084507 92.5989981,4.38239437 92.9091547,4.9 C93.2193114,5.41760563 93.1503877,6.03873239 92.7023836,6.79788732 C92.2888414,7.55704225 91.8063754,8.31619718 91.2549858,9.10985915 C91.7029899,9.52394366 92.1854558,9.93802817 92.5989981,10.3521127 C93.0470021,10.7661972 93.4260825,11.1457746 93.7362392,11.4908451 C94.1153196,11.9049296 94.3565525,12.25 94.3910144,12.5605634 C94.4254762,12.8711268 94.253167,13.1816901 93.9085485,13.5267606 C93.2882351,14.1133803 92.5989981,13.9408451 91.8063754,13.043662 C91.6340662,12.8366197 91.4617569,12.6640845 91.2894477,12.4570423 C91.1171384,12.284507 90.9448291,12.0774648 90.7725199,11.9049296 L90.7725199,19.565493 L90.8069817,19.565493 Z M95.0113277,7.76408451 C94.5288618,7.76408451 94.2187051,7.66056338 94.0808577,7.41901408 C93.9430103,7.17746479 93.8740866,6.90140845 93.8740866,6.48732394 C93.8740866,6.10774648 93.9430103,5.7971831 94.0808577,5.59014085 C94.2187051,5.38309859 94.5288618,5.24507042 95.0113277,5.24507042 L97.6993522,5.24507042 L97.6993522,1.31126761 C97.6993522,0.862676056 97.8027378,0.552112676 98.0439708,0.379577465 C98.2852037,0.207042254 98.5608986,0.138028169 98.9399789,0.138028169 C99.3190593,0.138028169 99.629216,0.241549296 99.8359871,0.414084507 C100.042758,0.586619718 100.180606,0.897183099 100.180606,1.31126761 L100.180606,5.24507042 L103.454482,5.24507042 C103.902486,5.24507042 104.178181,5.34859155 104.35049,5.59014085 C104.522799,5.7971831 104.591723,6.10774648 104.591723,6.48732394 C104.591723,6.86690141 104.522799,7.17746479 104.35049,7.41901408 C104.178181,7.62605634 103.902486,7.76408451 103.454482,7.76408451 L100.180606,7.76408451 L100.180606,17.6676056 L104.143719,17.6676056 C104.591723,17.6676056 104.867418,17.7711268 105.039727,18.0126761 C105.212036,18.2197183 105.28096,18.5302817 105.28096,18.9098592 C105.28096,19.2894366 105.212036,19.565493 105.039727,19.8070423 C104.867418,20.0485915 104.591723,20.1521127 104.143719,20.1521127 L93.5294681,20.1521127 C93.081464,20.1521127 92.7713073,20.0485915 92.6334599,19.8760563 C92.4956125,19.7035211 92.4266888,19.3584507 92.4266888,18.9098592 C92.4266888,18.4612676 92.4956125,18.1507042 92.6334599,17.943662 C92.7713073,17.7366197 93.081464,17.6676056 93.5294681,17.6676056 L97.7338141,17.6676056 L97.7338141,7.76408451 L95.0113277,7.76408451 Z M125.958071,18.9788732 C125.958071,19.8070423 125.510067,20.2211268 124.579597,20.2211268 L109.829924,20.2211268 C109.278535,20.2211268 108.864993,20.1866197 108.520374,20.1176056 C108.175755,20.0485915 107.934522,19.9105634 107.727751,19.7380282 C107.52098,19.565493 107.417595,19.2894366 107.348671,18.9788732 C107.279747,18.6683099 107.245285,18.2542254 107.245285,17.7366197 L107.245285,4.07183099 C107.245285,3.55422535 107.279747,3.14014085 107.348671,2.82957746 C107.417595,2.51901408 107.555442,2.24295775 107.727751,2.07042254 C107.934522,1.86338028 108.175755,1.75985915 108.520374,1.65633803 C108.864993,1.58732394 109.278535,1.5528169 109.829924,1.5528169 L124.303902,1.5528169 C124.786368,1.5528169 125.096525,1.65633803 125.268834,1.86338028 C125.441144,2.07042254 125.510067,2.38098592 125.510067,2.79507042 C125.510067,3.24366197 125.441144,3.55422535 125.268834,3.76126761 C125.096525,3.93380282 124.786368,4.03732394 124.303902,4.03732394 L110.519161,4.03732394 C110.243467,4.03732394 110.036695,4.07183099 109.93331,4.17535211 C109.829924,4.27887324 109.795463,4.41690141 109.795463,4.6584507 L109.795463,17.15 C109.795463,17.3570423 109.829924,17.5295775 109.93331,17.6330986 C110.036695,17.7366197 110.209005,17.8056338 110.519161,17.8056338 L124.614059,17.8056338 C125.096525,17.8056338 125.475605,17.9091549 125.682377,18.0816901 C125.820224,18.1852113 125.958071,18.5302817 125.958071,18.9788732 Z M123.752513,16.5633803 C123.442356,16.8394366 123.132199,16.9774648 122.890967,16.9774648 C122.615272,16.9774648 122.305115,16.7704225 121.960497,16.356338 C121.581416,15.9767606 120.995565,15.4246479 120.306328,14.7690141 C119.582629,14.1133803 118.790006,13.3887324 117.962922,12.5950704 C117.583841,12.9746479 117.204761,13.3542254 116.860142,13.6992958 C116.515524,14.0443662 116.136443,14.3894366 115.722901,14.7 C115.343821,15.0450704 114.895817,15.3901408 114.447813,15.7352113 C113.965347,16.0802817 113.448419,16.4598592 112.862567,16.8739437 C112.552411,17.0809859 112.276716,17.184507 111.932097,17.2535211 C111.587479,17.3225352 111.346246,17.184507 111.105013,16.8739437 C110.898242,16.5978873 110.794856,16.2873239 110.794856,15.9422535 C110.794856,15.5971831 111.001627,15.2866197 111.311784,15.0450704 C112.17333,14.4584507 113.034877,13.8373239 113.827499,13.1816901 C114.620122,12.5260563 115.412745,11.8014085 116.170905,10.9732394 C115.688439,10.5591549 115.240435,10.1450704 114.826893,9.8 C114.413351,9.45492958 113.999809,9.10985915 113.620728,8.79929577 C113.241648,8.48873239 112.862567,8.17816901 112.517949,7.90211268 C112.17333,7.62605634 111.79425,7.35 111.41517,7.03943662 C111.070551,6.79788732 110.86378,6.48732394 110.86378,6.17676056 C110.86378,5.86619718 110.967166,5.5556338 111.173937,5.27957746 C111.449631,4.96901408 111.759788,4.79647887 112.069945,4.83098592 C112.380101,4.86549296 112.72472,5.00352113 113.034877,5.27957746 C113.413957,5.59014085 113.793037,5.90070423 114.172118,6.21126761 C114.551198,6.48732394 114.895817,6.79788732 115.274897,7.1084507 C115.653977,7.41901408 116.033058,7.72957746 116.412138,8.07464789 C116.791219,8.41971831 117.239223,8.76478873 117.687227,9.17887324 C117.997383,8.79929577 118.273078,8.45422535 118.548773,8.10915493 C118.824468,7.79859155 119.065701,7.45352113 119.272472,7.14295775 C119.513705,6.83239437 119.720476,6.48732394 119.927247,6.14225352 C120.134018,5.7971831 120.340789,5.45211268 120.547561,5.07253521 C120.754332,4.69295775 120.961103,4.41690141 121.236798,4.31338028 C121.512492,4.17535211 121.822649,4.17535211 122.236191,4.34788732 C122.546348,4.48591549 122.787581,4.72746479 122.925428,5.03802817 C123.063276,5.34859155 123.028814,5.69366197 122.787581,6.07323944 C122.546348,6.48732394 122.339577,6.90140845 122.098344,7.28098592 C121.857111,7.66056338 121.615878,8.04014085 121.340183,8.41971831 C121.064488,8.79929577 120.788794,9.17887324 120.478637,9.5584507 C120.16848,9.93802817 119.823862,10.3521127 119.444781,10.8352113 C120.340789,11.6288732 121.133412,12.3535211 121.822649,13.0091549 C122.511886,13.6302817 123.166661,14.2169014 123.752513,14.7690141 C124.131593,15.1485915 124.303902,15.4591549 124.234979,15.7697183 C124.234979,16.0112676 124.06267,16.2873239 123.752513,16.5633803 Z"/>
    </g>
  </g>
</svg>
