<svg xmlns="http://www.w3.org/2000/svg" width="18" height="18" viewBox="0 0 18 18">
  <path fill-rule="evenodd" d="M12.2488038,0 C12.2894737,0.162679426 12.3301435,0.325358852 12.3301435,0.488038278 C12.3301435,1.17942584 12.1064593,1.8708134 11.6997608,2.56220096 C11.2320574,3.29425837 10.6830144,3.74162679 10.0526316,3.92464115 C10.0119617,3.92464115 9.64593301,4.00598086 8.9138756,4.14832536 C9.11722488,1.99282297 10.2356459,0.610047847 12.2488038,0 Z M12.492823,3.90430622 C13.9162679,3.90430622 14.9736842,4.45334928 15.6650718,5.57177033 C14.4449761,6.6291866 13.8349282,7.72727273 13.8349282,8.90669856 C13.8349282,9.63875598 14.0382775,10.3504785 14.4856459,11.041866 C14.9533493,11.7739234 15.5227273,12.2212919 16.2141148,12.4043062 C15.9294258,13.3600478 15.4413876,14.2954545 14.7703349,15.2308612 C13.9162679,16.3696172 13.1028708,16.9389952 12.3301435,16.9389952 C11.9437799,16.9389952 11.4557416,16.8169856 10.8863636,16.6136364 C10.3169856,16.3899522 9.80861244,16.2882775 9.38157895,16.2882775 C8.89354067,16.2882775 8.36483254,16.4102871 7.79545455,16.6543062 C7.20574163,16.8779904 6.77870813,17 6.534689,17 C5.70095694,17 4.88755981,16.3899522 4.07416268,15.1901914 C2.69138756,13.1363636 2,11.1435407 2,9.23205742 C2,7.74760766 2.32535885,6.52751196 2.97607656,5.59210526 C3.68779904,4.51435407 4.70454545,3.98564593 6.04665072,3.98564593 C6.57535885,3.98564593 7.1854067,4.08732057 7.8361244,4.29066986 C8.46650718,4.49401914 8.93421053,4.61602871 9.21889952,4.61602871 C9.46291866,4.61602871 9.91028708,4.49401914 10.6016746,4.25 C11.2727273,4.00598086 11.90311,3.90430622 12.492823,3.90430622 Z"/>
</svg>
