<svg xmlns="http://www.w3.org/2000/svg" width="12" height="12" viewBox="0 0 38 39">
  <g fill="none" fill-rule="evenodd">
    <path fill="#F00" d="M12.0399363,4.43714143 C12.708845,4.43714143 13.2812651,4.66868028 13.7571968,5.13175799 C14.2331284,5.59483569 14.4710942,6.16081489 14.4710942,6.82969557 L14.4710942,16.4770777 C14.4710942,17.1459864 14.2331284,17.7184066 13.7571968,18.1943382 C13.2812651,18.6702699 12.708845,18.9082357 12.0399363,18.9082357 L2.39255414,18.9082357 C1.72364545,18.9082357 1.15766626,18.6702699 0.694616556,18.1943382 C0.231566856,17.7184066 2.80042153e-05,17.1459864 0,16.4770777 L0,6.82969557 C0,6.16078688 0.231538852,5.59480769 0.694616556,5.13175799 C1.15769426,4.66870829 1.72367345,4.43716944 2.39255414,4.43714143 L12.0399363,4.43714143 Z"/>
    <path fill="#F5A623" d="M12.0399363,23.7319058 C12.708845,23.7319058 13.2812651,23.9634446 13.7571968,24.4265223 C14.2331284,24.8896 14.4710942,25.4555792 14.4710942,26.1244599 L14.4710942,35.8104459 C14.4710942,36.4793546 14.2331284,37.0453337 13.7571968,37.5083834 C13.2812651,37.9714331 12.708845,38.202972 12.0399363,38.203 L2.39255414,38.203 C1.72364545,38.203 1.15766626,37.9714611 0.694616556,37.5083834 C0.231566856,37.0453057 2.80042153e-05,36.4793265 0,35.8104459 L0,26.1244599 C0,25.4555512 0.231538852,24.889572 0.694616556,24.4265223 C1.15769426,23.9634726 1.72367345,23.7319338 2.39255414,23.7319058 L12.0399363,23.7319058 Z"/>
    <path fill="#509401" d="M31.3733044,23.7319058 C32.0422131,23.7319058 32.6081923,23.9634446 33.071242,24.4265223 C33.5342917,24.8896 33.7658306,25.4555792 33.7658586,26.1244599 L33.7658586,35.8104459 C33.7658586,36.4793546 33.5343197,37.0453337 33.071242,37.5083834 C32.6081643,37.9714331 32.0421851,38.202972 31.3733044,38.203 L21.7259223,38.203 C21.0570136,38.203 20.4845934,37.9714611 20.0086618,37.5083834 C19.5327301,37.0453057 19.2947643,36.4793265 19.2947643,35.8104459 L19.2947643,26.1244599 C19.2947643,25.4555512 19.5327301,24.889572 20.0086618,24.4265223 C20.4845934,23.9634726 21.0570136,23.7319338 21.7259223,23.7319058 L31.3733044,23.7319058 Z"/>
    <path fill="#9F08BE" d="M36.7372178,8.68196438 C37.2517393,9.19648583 37.509,9.80105483 37.509,10.4956714 C37.509,11.1902879 37.2517393,11.782003 36.7372178,12.2708166 L29.5595554,19.448479 C29.045034,19.9630004 28.4468919,20.2202612 27.7651293,20.2202612 C27.0833667,20.2202612 26.4852247,19.9630004 25.9707032,19.448479 L18.7930408,12.2708166 C18.3042552,11.782031 18.0598624,11.1903159 18.0598624,10.4956714 C18.0598624,9.80102682 18.3042552,9.19645782 18.7930408,8.68196438 L25.9707032,1.50430197 C26.4852247,1.0155164 27.0833667,0.771123609 27.7651293,0.771123609 C28.4468919,0.771123609 29.045034,1.0155164 29.5595554,1.50430197 L36.7372178,8.68196438 Z"/>
  </g>
</svg>
