<svg xmlns="http://www.w3.org/2000/svg" width="16" height="16" viewBox="0 0 16 16">
  <path fill="#C71D23" d="M15.288552,6.40026297 L7.11100162,6.40026297 L7.11100162,6.4004492 C6.71834944,6.4004492 6.40001312,6.71870217 6.39991029,7.11135433 L6.39925853,8.88908268 L6.39906641,8.88908264 C6.39896356,9.28180753 6.71724663,9.60025732 7.10997151,9.60036017 C7.11003556,9.60036018 7.1100996,9.60036018 7.11016365,9.60036018 L12.088641,9.60012659 L12.088641,9.60012067 C12.4813659,9.6001174 12.799735,9.91848119 12.7997383,10.3112061 C12.7997383,10.3112081 12.7997383,10.31121 12.7997383,10.311212 L12.7997323,10.4889848 L12.7997323,10.666811 C12.7997323,11.8449857 11.844633,12.800085 10.6664583,12.800085 L3.91056134,12.800085 L3.91056134,12.8000654 C3.5178928,12.8000654 3.19956903,12.4817504 3.1995582,12.0890819 L3.19935238,5.33362596 L3.19929359,5.33362596 C3.19926111,4.15545125 4.1543341,3.20032561 5.33250881,3.20029313 C5.3325284,3.20029313 5.332548,3.20029313 5.33256761,3.20029313 L15.2865674,3.20035193 L15.2865674,3.19991076 C15.6791201,3.19991076 15.9974151,2.88181306 15.9976586,2.48926045 L15.9992023,0.711532104 L15.9996432,0.711532378 C15.9998868,0.318807549 15.6817179,0.000243714469 15.2889931,1.3670731e-07 C15.2888461,4.56876187e-08 15.2886991,0 15.288552,0 L5.33327326,0.000440899742 L5.33327326,0.000470301591 C2.38784797,0.000470301591 0.000104445823,2.38820067 8.82073708e-05,5.33362596 L3.92031376e-06,15.2889047 L0,15.2889047 C-2.16513536e-06,15.6816296 0.318362518,15.9999978 0.711087421,16 C0.711088728,16 0.711090034,16 0.711091341,16 L11.1997768,15.9999961 C13.8506699,15.9999961 15.9996434,13.8510226 15.9996434,11.2001295 L15.9996434,7.11135431 C15.9996434,6.71862941 15.6812769,6.40026297 15.288552,6.40026297 Z"/>
</svg>
