<svg xmlns="http://www.w3.org/2000/svg" width="300" height="300" viewBox="0 0 300 300">
  <path fill="#b8b8b8" d="M242.491,191.024126 C242.553813,190.885933 242.578938,190.739364 242.629188,190.596983 C248.056188,178.126089 251,164.528709 251,150.504188 C251,143.142256 250.183437,135.977145 248.67175,129.063294 C248.629875,128.824597 248.575437,128.594275 248.512625,128.363952 C239.6435,89.0835658 207.722188,58.4674776 167.756688,51.5117504 C167.50125,51.4573107 167.254188,51.3986832 166.994563,51.3777448 C161.622,50.4857703 156.115437,50 150.5,50 C102.699688,50 62.6211251,83.551648 52.4957501,128.334639 C52.4287501,128.581712 52.3659376,128.832972 52.3198751,129.08842 C50.8165625,135.989708 50,143.150631 50,150.504188 C50,151.923809 50.0293124,153.339243 50.0879375,154.75049 C50.2554374,158.791595 53.618,161.848598 57.7091876,161.769032 C61.7501251,161.597337 64.8907501,158.184383 64.7190626,154.143277 C64.6688126,152.933039 64.647875,151.722801 64.647875,150.504188 C64.647875,146.119692 64.9828751,141.810575 65.6193749,137.597775 L92.9846874,137.597775 C92.9511873,138.971332 92.8925624,140.328139 92.8925624,141.714259 C92.8925624,145.755365 96.1713749,149.038502 100.2165,149.038502 C104.261625,149.038502 107.540437,145.755365 107.540437,141.714259 C107.540437,140.332326 107.594875,138.971332 107.632562,137.597775 L143.18025,137.597775 L143.18025,149.226947 C143.18025,153.272241 146.459062,156.55119 150.504187,156.55119 C154.545125,156.55119 157.828125,153.272241 157.828125,149.226947 L157.828125,137.597775 L193.367437,137.597775 C193.409312,138.971332 193.459562,140.332326 193.459562,141.714259 C193.459562,154.352661 191.876687,166.467603 188.757,177.715697 C187.672438,181.618609 189.958813,185.655527 193.853188,186.73176 C194.506438,186.91183 195.168063,186.999771 195.817125,186.999771 C199.02475,186.999771 201.968563,184.87662 202.868875,181.631172 C206.3445,169.105838 208.107437,155.675966 208.107437,141.710071 C208.107437,140.328139 208.044625,138.967145 208.011125,137.593587 L235.384812,137.593587 C236.0255,141.806388 236.356312,146.115505 236.356312,150.5 C236.356312,162.476749 233.835437,174.097546 229.204062,184.746802 C227.081,187.749365 213.894562,204.567065 183.41375,207.050356 C179.364437,207.381182 175.712937,207.544502 172.266625,207.544502 C156.040062,207.544502 142.070562,203.83841 128.926,195.973957 L145.328437,178.490416 C147.330062,176.363077 147.87025,173.251635 146.7145,170.567336 C145.554562,167.887224 142.91225,166.157715 139.993562,166.157715 L73.7347499,166.157715 C69.6938124,166.157715 66.4108124,169.432476 66.4108124,173.47777 L66.4108124,239.668153 C66.4108124,242.633026 68.1946874,245.304763 70.9333124,246.435435 C73.6719374,247.570295 76.8167499,246.946331 78.9146874,244.848306 L95.4176249,228.344681 C104.672,236.489708 124.75525,250.987437 150.495812,251 L150.520937,251 C180.620687,251 222.344937,235.622859 241.821,192.481437 C241.87125,192.36837 241.9215,192.251115 241.975937,192.138048 C242.147625,191.769532 242.3235,191.409392 242.491,191.024126 Z M137.275875,65.6702779 C139.218875,65.3687653 141.191187,65.1510063 143.176062,64.9834992 L143.176062,88.6857368 C135.684625,87.8733279 128.498875,85.8129921 121.794687,82.5759198 C126.179,75.2139881 131.400813,69.3721822 137.275875,65.6702779 Z M157.823937,64.9834994 C159.766938,65.1510063 161.70575,65.3562025 163.611063,65.6493396 C169.469375,69.3051794 174.724688,75.176299 179.1425,82.6471103 C172.455063,85.8506813 165.286062,87.8900787 157.823937,88.6941122 L157.823937,64.9834994 Z M69.2038751,122.94929 C74.6225,107.006813 84.6013126,93.162361 97.58675,82.9653735 C98.039,84.0625442 98.7341249,85.0759615 99.7265624,85.8758074 C100.698062,86.6630902 101.732375,87.3624317 102.741562,88.0952749 C98.4870624,98.4597693 95.5181249,110.277387 94.019,122.945102 L69.2038751,122.945102 L69.2038751,122.94929 Z M108.754812,122.94929 C110.04875,113.104067 112.356063,103.895371 115.479937,95.7294054 C124.164812,99.8877661 133.540625,102.534376 143.176062,103.422163 L143.176062,122.953477 L108.754812,122.953477 L108.754812,122.94929 Z M157.823937,122.94929 L157.823937,103.426351 C167.4175,102.555315 176.768187,99.9380182 185.436312,95.8131589 C188.564375,103.983312 190.892625,113.17107 192.2075,122.94929 L157.823937,122.94929 Z M206.939125,122.94929 C205.419063,110.386266 202.40825,98.6063377 198.149562,88.2376558 C199.15875,87.5048128 200.193063,86.8096587 201.164562,86.0307513 C202.215625,85.1890287 202.940062,84.1169841 203.392312,82.9486229 C216.390312,93.1497979 226.369125,106.998437 231.78775,122.94929 L206.939125,122.94929 Z M150.520938,243.684133 L150.5,236.35989 C122.096187,236.347327 100.961875,213.415621 100.760875,213.197862 C99.420875,211.70705 97.5197501,210.827638 95.5097501,210.773199 C95.4427501,210.773199 95.3799376,210.773199 95.3171251,210.773199 C93.3783127,210.773199 91.5106876,211.547919 90.1413751,212.917288 L81.0586876,222.000354 L81.0586876,180.814576 L123.071875,180.814576 L112.305813,192.284616 C110.8695,193.813117 110.157625,195.890204 110.354438,197.984041 C110.555438,200.073691 111.64,201.98327 113.344313,203.214446 C130.923438,215.986854 150.194313,222.197175 172.262438,222.197175 C176.114938,222.197175 180.1475,222.017105 184.603,221.652777 C191.478875,221.091629 197.638688,219.893954 203.157813,218.294262 C201.595875,219.5045 200.004625,220.685424 198.350562,221.795158 C198.107688,221.958478 197.9025,222.163674 197.680563,222.352119 C182.216125,232.28947 164.829625,236.35989 150.520938,236.35989 L150.520938,243.684133 Z"/>
</svg>
