<svg xmlns="http://www.w3.org/2000/svg" width="97" height="97" viewBox="0 0 97 97">
  <path fill="#21609B" d="M91.7277183,70.0470192 L91.3255727,71.0886744 C84.4743849,84.428138 72.3364539,92.613272 55.0226149,92.9742222 C46.9286991,93.1409656 39.2163313,91.064521 34.1787221,88.8056398 C23.3060785,83.9210422 14.16168,74.861977 9.1672279,65.1830192 C2.00315126,51.3080154 0.711381136,32.0069884 15.6074424,17.5905594 C15.8369597,17.5905594 13.8007298,20.7165057 14.030247,20.7165057 L13.6202547,22.0504521 C2.88590988,55.6570728 35.9569903,84.4565824 68.1050977,81.1629118 C75.8311973,80.3713716 85.6837643,76.1400154 91.7277183,70.0470192 Z M72.2736799,56.1504368 C80.3617107,56.2063448 88.8097107,52.4261762 93.8120095,47.1188352 C89.4354885,58.228843 76.7629979,65.3703602 59.7679329,63.098728 C45.5388447,61.1949118 31.9835957,46.8755862 30.5868753,32.527816 C29.5658179,22.0857624 33.2057259,15.8534866 39.2025995,8.29413027 C37.1183083,12.247908 36.3395191,15.2973486 36.1453121,17.2423601 C33.8668141,39.8301916 54.1888983,56.0327356 72.2736799,56.1504368 Z M92.9998715,28.095387 C91.7424309,30.9790652 84.5028295,36.4256858 81.3062623,37.1063908 C68.6475037,39.802728 60.5398563,33.7999694 56.2937873,26.9693794 C55.6621245,25.9483218 54.4949213,23.162728 54.2860019,22.4535785 C52.6391665,16.8539464 53.3963773,8.38436781 58.3094195,4 C56.8293275,8.16858237 56.6135421,13.0110038 57.3923313,16.1585287 C57.8641167,18.0623448 59.3020325,21.3844598 60.7409291,23.474636 C63.3597795,27.2822682 65.0203467,28.207203 68.3836569,30.2287202 C69.8980785,31.1389426 71.5233351,31.8686896 72.2256187,32.0697624 C75.4143389,33.0074482 82.1468447,35.481134 92.9998715,28.095387 Z"/>
</svg>
