<svg xmlns="http://www.w3.org/2000/svg" width="219" height="48" viewBox="0 0 219 48">
  <path d="M49.752,30.824 L109.669,30.824 L109.669,47.956 L49.75,47.956 L49.752,30.824 Z M106.982,43.124 C106.879,43.154 106.772,43.172 106.666,43.174 C106.328,43.174 106.152,43.024 106.152,42.592 L106.152,39.336 C106.152,37.626 104.8,36.793 103.176,36.793 C102.069,36.768 100.971,37 99.966,37.469 L99.676,39.193 L101.386,39.375 L101.631,38.533 C101.989,38.365 102.384,38.291 102.778,38.317 C103.992,38.317 104.008,39.23 104.008,40.007 L104.008,40.241 C103.601,40.193 103.19,40.171 102.778,40.173 C101.068,40.173 99.288,40.606 99.288,42.449 C99.288,44.012 100.518,44.593 101.598,44.593 C102.62,44.59 103.552,44.013 104.008,43.099 C104.026,43.979 104.778,44.662 105.656,44.593 C106.128,44.593 106.592,44.476 107.009,44.255 L106.982,43.124 Z M102.378,43.074 C101.874,43.137 101.442,42.712 101.498,42.207 C101.498,41.392 102.175,41.192 102.93,41.192 C103.29,41.2 103.652,41.232 104.008,41.29 C103.958,42.525 103.156,43.073 102.378,43.073 L102.378,43.074 Z M97.388,33 L94.148,44.433 L96.258,44.433 L99.5,33.002 L97.388,33 Z M93.035,33 L89.795,44.433 L91.905,44.433 L95.145,33 L93.035,33 Z M86.145,39.645 L88.388,39.645 L88.388,36.94 L86.146,36.94 L86.145,39.645 Z M86.145,44.447 L88.388,44.447 L88.388,41.741 L86.146,41.741 L86.145,44.447 Z M82.528,42.807 L80.1,42.807 L84.256,38.071 L84.09,36.941 L77.51,36.941 L77.242,39.571 L78.788,39.735 L79.126,38.572 L81.469,38.572 L77.346,43.306 L77.562,44.436 L84.106,44.436 L84.573,41.806 L82.883,41.642 L82.528,42.807 Z M72.143,36.79 C69.437,36.79 68.123,38.602 68.123,40.794 C68.123,43.188 69.718,44.598 72.028,44.598 C74.422,44.598 76.15,43.088 76.15,40.693 C76.147,38.6 74.83,36.787 72.14,36.787 L72.143,36.79 Z M72.089,42.944 C70.924,42.944 70.326,41.947 70.326,40.652 C70.326,39.238 71.002,38.422 72.104,38.422 C73.119,38.422 73.934,39.099 73.934,40.618 C73.934,42.056 73.204,42.945 72.088,42.945 L72.089,42.944 Z M66.183,39.38 C66.183,37.6 64.959,36.786 63.606,36.786 C62.531,36.746 61.549,37.393 61.166,38.398 C60.799,37.298 59.802,36.785 58.723,36.785 C57.783,36.745 56.903,37.24 56.447,38.063 L56.447,36.933 L53.307,36.933 L53.307,38.563 L54.303,38.563 L54.303,42.803 L53.306,42.803 L53.306,44.433 L57.878,44.433 L57.878,42.803 L56.446,42.803 L56.446,40.2 C56.446,39.152 56.879,38.42 57.894,38.42 C58.739,38.42 59.172,38.922 59.172,40.217 L59.172,44.441 L62.312,44.441 L62.312,42.811 L61.316,42.811 L61.316,40.199 C61.316,39.151 61.749,38.419 62.763,38.419 C63.609,38.419 64.041,38.921 64.041,40.216 L64.041,44.43 L67.183,44.43 L67.183,42.8 L66.185,42.8 L66.183,39.38 Z M144.974,16.99 L138.684,16.99 C138.914,15.055 139.844,13.432 141.958,13.432 C144.203,13.432 145.158,15.289 144.974,16.99 Z M218.952,0 L218.952,29.137 L49.752,29.137 L49.752,0 L218.952,0 Z M71.706,6.885 L67.856,6.885 L61.51,20.01 L61.406,20.01 L54.882,6.884 L51.042,6.884 L51.042,8.534 L53.232,8.534 L53.232,21.98 L51.12,21.98 L51.12,23.63 L57.047,23.63 L57.047,21.98 L55.035,21.98 L55.035,11.24 L55.135,11.24 L60.885,22.793 L61.9,22.793 L67.52,11.319 L67.625,11.319 L67.625,21.979 L65.663,21.979 L65.663,23.629 L71.605,23.629 L71.605,21.979 L69.515,21.979 L69.515,8.536 L71.705,8.536 L71.706,6.885 Z M81.699,23.645 C86.984,23.645 90.183,20.165 90.183,15.225 C90.183,10.378 87.089,6.872 81.623,6.872 L74.12,6.872 L74.12,8.495 L76.234,8.495 L76.234,22.022 L74.12,22.022 L74.12,23.645 L81.699,23.645 Z M108.749,6.885 L102.323,6.885 L102.323,8.535 L104.849,8.535 L104.849,19.803 L104.749,19.803 L95.21,6.885 L91.6,6.885 L91.6,8.535 L93.82,8.535 L93.82,21.98 L91.885,21.98 L91.885,23.63 L98.27,23.63 L98.27,21.98 L95.615,21.98 L95.615,10.444 L95.715,10.444 L105.439,23.646 L106.649,23.646 L106.649,8.535 L108.739,8.535 L108.749,6.885 Z M135.459,12.175 L130.303,12.175 L130.303,13.642 L132.133,13.642 L130.276,20.889 L130.148,20.889 L126.562,12.173 L125.352,12.173 L121.929,20.891 L121.802,20.891 L119.662,13.644 L121.595,13.644 L121.595,12.174 L116.185,12.174 L116.185,13.641 L117.707,13.641 L120.957,23.644 L122.309,23.644 L125.741,14.878 L125.871,14.878 L129.367,23.643 L130.76,23.643 L133.882,13.64 L135.455,13.64 L135.459,12.175 Z M142.163,23.902 C145,23.902 146.677,22.319 146.993,20.334 L145.47,19.996 C145.11,21.416 144.105,22.343 142.3,22.343 C140.017,22.343 138.77,20.875 138.664,18.323 L146.722,18.323 C146.822,17.878 146.875,17.425 146.878,16.969 C146.854,14.259 145.15,11.939 142.005,11.939 C138.759,11.939 136.745,14.519 136.745,18.079 C136.745,21.791 138.907,23.904 142.157,23.904 L142.163,23.902 Z M155.571,23.902 C159.234,23.902 160.705,20.652 160.705,17.608 C160.705,13.966 158.642,11.938 155.781,11.938 C153.591,11.938 152.379,13.124 151.681,14.541 L151.681,5.905 L148.151,5.905 L148.151,7.375 L149.843,7.375 L149.843,20.298 C149.813,21.422 149.7,22.542 149.505,23.648 L151.31,23.648 C151.338,23.521 151.545,21.87 151.545,21.742 C152.292,23.132 153.787,23.907 155.565,23.907 L155.571,23.902 Z M181.769,22.174 L179.784,22.174 L179.784,5.904 L175.184,5.904 L175.184,7.374 L177.982,7.374 L177.982,14.027 C177.234,12.685 175.832,11.937 174.14,11.937 C170.4,11.937 168.957,15.137 168.957,18.204 C168.957,21.788 170.915,23.902 173.881,23.902 C175.968,23.902 177.233,22.678 177.981,21.325 L177.981,23.648 L181.765,23.648 L181.769,22.174 Z M188.732,23.902 C192.262,23.902 194.482,21.376 194.474,17.896 C194.474,14.646 192.54,11.914 188.827,11.914 C185.114,11.914 183.157,14.649 183.157,18.001 C183.157,21.458 185.247,23.906 188.725,23.906 L188.732,23.902 Z M201.674,23.902 C204.846,23.902 206.212,21.788 206.54,19.79 L204.992,19.45 C204.658,21.335 203.677,22.367 201.898,22.367 C199.628,22.367 198.391,20.73 198.391,17.97 C198.391,15.495 199.373,13.483 201.821,13.483 C202.683,13.453 203.534,13.678 204.271,14.129 L204.691,16.065 L206.187,15.885 L205.747,13.127 C204.587,12.251 203.35,11.94 201.827,11.94 C198.271,11.94 196.465,14.906 196.465,18.08 C196.465,21.765 198.501,23.905 201.673,23.905 L201.674,23.902 Z M212.84,23.902 C215.6,23.902 217.714,22.562 217.687,20.307 C217.687,15.742 210.587,18.112 210.587,15.123 C210.587,13.946 211.617,13.433 213.061,13.433 C213.887,13.418 214.701,13.613 215.429,14 L215.696,15.864 L217.191,15.684 L216.907,13.004 C215.687,12.312 214.311,11.947 212.91,11.944 C210.822,11.944 208.655,12.847 208.655,15.272 C208.655,19.732 215.848,17.335 215.848,20.48 C215.848,21.795 214.353,22.414 212.753,22.414 C211.87,22.421 210.997,22.227 210.2,21.846 L210.278,20.324 L208.834,20.168 L208.472,22.772 C209.449,23.415 211.208,23.905 212.832,23.905 L212.84,23.902 Z M158.798,17.792 C158.798,20.165 157.74,22.356 155.214,22.356 C153.274,22.4 151.68,20.84 151.68,18.9 L151.68,17.172 C151.73,15.472 153.124,13.486 155.315,13.486 C157.263,13.486 158.795,14.93 158.798,17.791 L158.798,17.792 Z M177.978,16.732 L177.978,18.565 C177.902,20.295 176.408,22.355 174.344,22.355 C172.359,22.355 170.864,20.885 170.864,18.075 C170.864,15.65 171.997,13.485 174.55,13.485 C176.39,13.445 177.92,14.895 177.98,16.733 L177.978,16.732 Z M192.575,17.865 C192.575,20.445 191.235,22.353 188.785,22.353 C186.332,22.353 185.045,20.395 185.045,17.893 C185.045,15.343 186.385,13.459 188.785,13.459 C191.182,13.459 192.575,15.237 192.575,17.864 L192.575,17.865 Z M88.185,15.272 C88.185,19.432 85.865,22.035 81.611,22.035 L78.133,22.035 L78.133,8.508 L81.599,8.508 C85.853,8.508 88.173,11.218 88.186,15.272 L88.185,15.272 Z M0.116,0 L48.072,0 L48.072,47.956 L0.116,47.956 L0.116,0 Z M42.01,22.02 C41.974,21.297 41.89,20.572 41.84,19.854 C41.813,19.494 41.675,19.152 41.445,18.874 C41.173,18.542 40.819,18.287 40.419,18.134 C39.611,17.82 38.797,17.47 37.984,17.159 C36.832,16.764 35.714,16.273 34.642,15.687 C33.922,15.272 33.442,14.54 33.346,13.715 C33.24,12.782 32.692,11.953 31.876,11.487 C30.97,11 29.913,10.875 28.918,11.137 C28.184,11.313 27.418,11.302 26.688,11.104 L25.576,10.764 L25.274,10.674 L24.401,10.414 C22.831,9.946 22.173,9.701 19.628,10.136 C16.946,10.744 14.491,12.096 12.538,14.033 L6.168,20.793 L11.888,20.793 L8.384,24.503 L14.41,24.503 L10.907,28.213 L15.751,28.213 L14.203,32.273 C20.133,38.343 26.453,39.568 26.453,39.568 C26.453,37.895 26.833,31.328 27.279,30.228 C27.446,29.676 27.704,29.158 28.041,28.688 C28.868,27.674 30.123,27.1 31.434,27.141 C32.737,27.141 34.031,27.379 35.249,27.843 C35.989,28.153 36.826,28.107 37.526,27.721 C38.033,27.421 38.533,27.103 39.024,26.781 C39.181,26.656 39.379,26.593 39.58,26.601 C40.12,26.661 40.634,26.364 40.85,25.867 C41.01,25.537 41.2,25.227 41.374,24.897 C41.846,24.013 42.064,23.017 42.007,22.017 L42.01,22.02 Z"/>
</svg>
