<svg xmlns="http://www.w3.org/2000/svg" width="119" height="110" viewBox="0 0 119 110">
  <path fill="#689F63" d="M48.647,109.93 C47.187,109.93 45.737,109.547 44.457,108.81 L31.12,100.914 C29.128,99.8 30.1,99.406 30.757,99.179 C33.413,98.249 33.952,98.039 36.787,96.429 C37.085,96.259 37.475,96.319 37.78,96.499 L48.026,102.579 C48.396,102.779 48.921,102.779 49.264,102.579 L89.214,79.519 C89.584,79.309 89.824,78.879 89.824,78.439 L89.824,32.339 C89.824,31.879 89.584,31.469 89.206,31.239 L49.272,8.199 C48.902,7.979 48.412,7.979 48.042,8.199 L8.116,31.239 C7.729,31.459 7.483,31.889 7.483,32.329 L7.483,78.429 C7.483,78.869 7.723,79.289 8.103,79.499 L19.043,85.819 C24.983,88.789 28.613,85.289 28.613,81.769 L28.613,36.269 C28.613,35.619 29.123,35.119 29.773,35.119 L34.833,35.119 C35.463,35.119 35.983,35.619 35.983,36.269 L35.983,81.789 C35.983,89.709 31.663,94.259 24.153,94.259 C21.843,94.259 20.023,94.259 14.943,91.759 L4.463,85.719 C1.873,84.219 0.273,81.419 0.273,78.429 L0.273,32.329 C0.273,29.329 1.873,26.529 4.463,25.049 L44.453,1.979 C46.983,0.549 50.343,0.549 52.853,1.979 L92.793,25.059 C95.373,26.549 96.983,29.339 96.983,32.339 L96.983,78.439 C96.983,81.429 95.373,84.219 92.793,85.719 L52.853,108.789 C51.573,109.529 50.123,109.909 48.643,109.909 L48.647,109.93 Z M60.987,78.164 C43.507,78.164 39.842,70.14 39.842,63.41 C39.842,62.77 40.358,62.26 40.999,62.26 L46.159,62.26 C46.729,62.26 47.209,62.675 47.299,63.238 C48.079,68.496 50.399,71.148 60.969,71.148 C69.389,71.148 72.969,69.246 72.969,64.781 C72.969,62.211 71.949,60.301 58.869,59.021 C47.929,57.941 41.169,55.531 41.169,46.781 C41.169,38.721 47.969,33.921 59.359,33.921 C72.149,33.921 78.489,38.361 79.289,47.901 C79.319,48.231 79.199,48.551 78.979,48.791 C78.759,49.021 78.449,49.161 78.129,49.161 L72.939,49.161 C72.399,49.161 71.929,48.781 71.819,48.261 C70.569,42.731 67.549,40.961 59.339,40.961 C50.149,40.961 49.079,44.161 49.079,46.561 C49.079,49.471 50.339,50.321 62.739,51.961 C75.019,53.591 80.849,55.891 80.849,64.521 C80.849,73.221 73.589,78.211 60.929,78.211 L60.987,78.164 Z M118.539,29.861 C118.539,34.101 115.069,37.561 110.839,37.561 C106.639,37.561 103.139,34.141 103.139,29.861 C103.139,25.501 106.719,22.161 110.839,22.161 C114.989,22.161 118.529,25.511 118.529,29.861 L118.539,29.861 Z M104.389,29.841 C104.389,33.421 107.279,36.321 110.829,36.321 C114.409,36.321 117.299,33.361 117.299,29.841 C117.299,26.251 114.369,23.401 110.819,23.401 C107.319,23.401 104.379,26.211 104.379,29.831 L104.389,29.841 Z M107.959,25.541 L110.929,25.541 C111.949,25.541 113.949,25.541 113.949,27.821 C113.949,29.411 112.929,29.741 112.319,29.941 C113.509,30.021 113.589,30.801 113.749,31.901 C113.829,32.591 113.959,33.781 114.199,34.181 L112.369,34.181 C112.319,33.781 112.039,31.581 112.039,31.461 C111.919,30.971 111.749,30.731 111.139,30.731 L109.629,30.731 L109.629,34.191 L107.959,34.191 L107.959,25.541 Z M109.589,29.321 L110.929,29.321 C112.029,29.321 112.239,28.551 112.239,28.101 C112.239,26.921 111.429,26.921 110.979,26.921 L109.599,26.921 L109.589,29.321 Z"/>
</svg>
