<svg xmlns="http://www.w3.org/2000/svg" width="183" height="100" viewBox="0 0 183 100">
  <g fill="none" transform="matrix(1 0 0 -1 .8 99.5)">
    <path fill="#CA4245" d="M86.9,98.2 C84.8,97.7 81.6,95.7 79.7,93.8 C76.6,90.6 76,89.2 74.7,82.7 C74.1,79.5 77.8,71.9 81.1,69.6 C84.5,67.2 89.3,65.8 96.7,65 C107.5,63.8 110.6,60.2 110.6,48.4 C110.6,38 107.7,35.2 95.8,34 C82.9,32.7 76.3,27.7 74.9,18 C74.1,12.1 78,4.7 83.4,2.2 C95.7,-3.6 107.2,3.7 109.6,18.8 C111.2,28.5 114.3,31.2 124.7,32 C136.7,33 142.9,37.1 145.2,45.5 C147.3,53.2 142.9,61.8 135.4,64.8 C133.4,65.6 128.8,66.6 125.2,67 C113.9,68.2 111,70.2 109.8,77.5 C108.1,87.6 107.4,89.3 103.8,93.3 C99.6,98 93.2,99.9 86.9,98.2 Z"/>
    <path fill="#000" d="M51.7 65.5C40.6 63.1 35.3 50 41.5 40.6 50.4 27.2 71.3 33.4 71.5 49.5 71.6 59.8 61.8 67.7 51.7 65.5zM12.6 32.5C-3.7 28.9-4.3 5.1 11.8.9 15.8-.2 16.2-.2 20.2.8 29.2 3.2 34.3 11.8 31.9 20.5 29.5 29.3 21.3 34.4 12.6 32.5zM159.7 31.6C149.2 28 145.6 15.8 152.3 6.4 156.5.4 167.1-1.6 173.6 2.5 184.3 9.1 183.9 25.6 172.9 30.8 167.8 33.3 165 33.4 159.7 31.6z"/>
  </g>
</svg>
