<svg xmlns="http://www.w3.org/2000/svg" width="774" height="876" viewBox="0 0 774 876">
  <g fill="none">
    <polygon fill="#F8F8F8" points="387 0 774 218.9 774 656.8 387 875.7 0 656.8 0 218.9"/>
    <path fill="#8ED6FB" d="M704.9,641.7 L399.8,814.3 L399.8,679.9 L589.9,575.3 L704.9,641.7 Z M725.8,622.8 L725.8,261.9 L614.2,326.4 L614.2,558.4 L725.8,622.8 L725.8,622.8 Z M67.9,641.7 L373,814.3 L373,679.9 L182.8,575.3 L67.9,641.7 Z M47,622.8 L47,261.9 L158.6,326.4 L158.6,558.4 L47,622.8 Z M60.1,238.5 L373,61.5 L373,191.4 L172.5,301.7 L170.9,302.6 L60.1,238.5 Z M712.7,238.5 L399.8,61.5 L399.8,191.4 L600.3,301.6 L601.9,302.5 L712.7,238.5 Z"/>
    <path fill="#1C78C0" d="M373,649.3 L185.4,546.1 L185.4,341.8 L373,450.1 L373,649.3 Z M399.8,649.3 L587.4,546.2 L587.4,341.8 L399.8,450.1 L399.8,649.3 Z M198.1,318.2 L386.4,214.7 L574.7,318.2 L386.4,426.9 L198.1,318.2 Z"/>
  </g>
</svg>
