<svg xmlns="http://www.w3.org/2000/svg" width="180" height="51" viewBox="0 0 180 51">
  <g fill="none" fill-rule="evenodd" transform="translate(1 1)">
    <path fill="#3DAB53" fill-rule="nonzero" d="M23.8820639,33.6788732 C18.8506334,33.7133803 14.7496729,30.4007042 14.4739781,24.2239437 C14.1982833,18.4612676 19.2297138,14.5964789 24.0199113,14.4929577 C29.5338077,14.3549296 32.8421456,20.7042254 32.8421456,20.7042254 L47.0748907,15.4246479 C47.0748907,15.4246479 41.2163758,0.138028169 25.3639235,0.138028169 C10.5453269,0.138028169 0.310156674,10.4901408 0.310156674,24.534507 C0.310156674,37.0260563 9.95947541,49.4830986 25.019305,48.9309859 C41.5609943,48.3098592 47.2127381,33.6443662 47.2127381,33.6443662 L32.6009126,28.7788732 C32.6353745,28.7098592 29.6371933,33.6788732 23.8820639,33.6788732"/>
    <path stroke="#006838" stroke-width="1.723" d="M23.8820639,33.6788732 C18.8506334,33.7133803 14.7496729,30.4007042 14.4739781,24.2239437 C14.1982833,18.4612676 19.2297138,14.5964789 24.0199113,14.4929577 C29.5338077,14.3549296 32.8421456,20.7042254 32.8421456,20.7042254 L47.0748907,15.4246479 C47.0748907,15.4246479 41.2163758,0.138028169 25.3639235,0.138028169 C10.5453269,0.138028169 0.310156674,10.4901408 0.310156674,24.534507 C0.310156674,37.0260563 9.95947541,49.4830986 25.019305,48.9309859 C41.5609943,48.3098592 47.2127381,33.6443662 47.2127381,33.6443662 L32.6009126,28.7788732 C32.6353745,28.7098592 29.6371933,33.6788732 23.8820639,33.6788732"/>
    <g fill="#000" fill-rule="nonzero" transform="translate(54.45 34.852)">
      <path d="M.0344618526 5.52112676C.0344618526 4.38239437.482465937 3.55422535 1.34401225 3.03661972 2.06771116 2.58802817 2.96371933 2.34647887 4.03203676 2.34647887 5.20373975 2.34647887 6.16867162 2.62253521 6.89237053 3.17464789 7.65053129 3.72676056 7.99514981 4.48591549 7.99514981 5.45211268 7.99514981 6.24577465 7.82284055 6.83239437 7.51268388 7.28098592 7.16806535 7.72957746 6.72006127 8.07464789 6.06528607 8.31619718 5.44497272 8.55774648 4.75573566 8.69577465 3.99757491 8.69577465 2.79141006 8.69577465 1.82647819 8.41971831 1.10277928 7.86760563.413542232 7.35.0344618526 6.55633803.0344618526 5.52112676zM1.51632152 5.52112676C1.51632152 6.31478873 1.75755448 6.86690141 2.24002042 7.28098592 2.72248636 7.66056338 3.30833785 7.86760563 4.03203676 7.86760563 4.75573566 7.86760563 5.34158716 7.66056338 5.8240531 7.28098592 6.30651903 6.90140845 6.547752 6.31478873 6.547752 5.52112676 6.547752 4.76197183 6.30651903 4.20985915 5.8240531 3.83028169 5.34158716 3.45070423 4.75573566 3.24366197 4.03203676 3.24366197 3.30833785 3.24366197 2.72248636 3.45070423 2.24002042 3.83028169 1.75755448 4.17535211 1.51632152 4.76197183 1.51632152 5.52112676zM9.13239095 6.76338028L10.5453269 6.59084507C10.6142506 7.00492958 10.8554836 7.31549296 11.2001021 7.52253521 11.5791825 7.72957746 12.0616484 7.83309859 12.7508855 7.83309859 13.4056607 7.83309859 13.9225885 7.72957746 14.2327451 7.55704225 14.5429018 7.35 14.7152111 7.14295775 14.7152111 6.86690141 14.7152111 6.62535211 14.5773637 6.4528169 14.3016688 6.31478873 14.0948977 6.21126761 13.6124318 6.10774648 12.8198092 5.96971831 11.7514918 5.76267606 11.0277928 5.62464789 10.6142506 5.48661972 10.2007084 5.34859155 9.89055171 5.1415493 9.68378059 4.9 9.47700948 4.6584507 9.37362392 4.38239437 9.37362392 4.07183099 9.37362392 3.79577465 9.47700948 3.55422535 9.64931874 3.31267606 9.821628 3.07112676 10.062861 2.89859155 10.3730176 2.72605634 10.6142506 2.62253521 10.8899454 2.51901408 11.3034877 2.41549296 11.682568 2.34647887 12.0961103 2.27746479 12.5441144 2.27746479 13.1988896 2.27746479 13.7847411 2.34647887 14.3016688 2.48450704 14.8185966 2.62253521 15.1632152 2.79507042 15.4044481 3.03661972 15.6456811 3.27816901 15.8179904 3.58873239 15.8869141 3.96830986L14.4739781 4.10633803C14.4050544 3.79577465 14.2327451 3.55422535 13.9225885 3.38169014 13.6124318 3.20915493 13.1644277 3.1056338 12.6130381 3.1056338 11.9582629 3.1056338 11.4757969 3.17464789 11.2001021 3.3471831 10.9244073 3.51971831 10.7865599 3.69225352 10.7865599 3.89929577 10.7865599 4.03732394 10.8554836 4.14084507 10.9588691 4.2443662 11.0622547 4.34788732 11.2690258 4.45140845 11.5102588 4.52042254 11.6481062 4.55492958 12.0961103 4.6584507 12.7853473 4.79647887 13.8192029 5.00352113 14.50844 5.1415493 14.9219822 5.27957746 15.3355244 5.41760563 15.6456811 5.59014085 15.8869141 5.83169014 16.128147 6.07323944 16.2315326 6.34929577 16.2315326 6.6943662 16.2315326 7.03943662 16.0936852 7.35 15.8179904 7.66056338 15.5422955 7.97112676 15.1287533 8.21267606 14.6118255 8.35070423 14.0948977 8.52323944 13.4745844 8.59225352 12.8198092 8.59225352 11.7170299 8.59225352 10.8554836 8.41971831 10.3040939 8.10915493 9.64931874 7.90211268 9.30470021 7.41901408 9.13239095 6.76338028zM23.5029835 6.34929577L24.9159195 6.48732394C24.7436102 7.17746479 24.3645298 7.72957746 23.7097546 8.10915493 23.0549794 8.48873239 22.2968187 8.69577465 21.3663486 8.69577465 20.1946456 8.69577465 19.2641756 8.41971831 18.5404767 7.86760563 17.8167778 7.31549296 17.4721593 6.55633803 17.4721593 5.52112676 17.4721593 4.86549296 17.6100067 4.27887324 17.9201634 3.79577465 18.23032 3.31267606 18.6783241 2.93309859 19.2986375 2.6915493 19.9189508 2.45 20.6081879 2.31197183 21.3318868 2.31197183 22.2623568 2.31197183 23.0205176 2.48450704 23.6063691 2.79507042 24.1922206 3.14014085 24.5713009 3.58873239 24.7436102 4.20985915L23.3306742 4.34788732C23.1928268 3.93380282 22.9515939 3.62323944 22.6069753 3.41619718 22.2623568 3.20915493 21.8488146 3.1056338 21.3663486 3.1056338 20.6426497 3.1056338 20.0567982 3.27816901 19.6087942 3.65774648 19.1607901 4.03732394 18.9195571 4.62394366 18.9195571 5.41760563 18.9195571 6.24577465 19.1263282 6.83239437 19.5743323 7.17746479 20.0223364 7.55704225 20.573726 7.72957746 21.2974249 7.72957746 21.8488146 7.72957746 22.3312805 7.5915493 22.7103609 7.35 23.158365 7.24647887 23.3995979 6.86690141 23.5029835 6.34929577zM26.1565462 8.55774648L26.1565462.172535211 27.603944.172535211 27.603944 3.17464789C28.293181 2.62253521 29.1202655 2.34647887 30.1541211 2.34647887 30.7744344 2.34647887 31.3258241 2.45 31.80829 2.62253521 32.2907559 2.79507042 32.6009126 3.03661972 32.8076837 3.3471831 33.0144548 3.65774648 33.1178404 4.10633803 33.1178404 4.69295775L33.1178404 8.52323944 31.6704426 8.52323944 31.6704426 4.69295775C31.6704426 4.17535211 31.4981333 3.79577465 31.1879766 3.55422535 30.87782 3.31267606 30.4298159 3.20915493 29.8439644 3.20915493 29.4304222 3.20915493 29.0168799 3.27816901 28.6377995 3.45070423 28.2587192 3.62323944 27.9830243 3.83028169 27.8451769 4.10633803 27.6728677 4.38239437 27.603944 4.76197183 27.603944 5.21056338L27.603944 8.52323944 26.1565462 8.55774648zM35.2889371 1.38028169L35.2889371.207042254 36.7363349.207042254 36.7363349 1.38028169 35.2889371 1.38028169zM35.2889371 8.55774648L35.2889371 2.48450704 36.7363349 2.48450704 36.7363349 8.55774648 35.2889371 8.55774648zM38.9418935 8.55774648L38.9418935 2.48450704 40.2514439 2.48450704 40.2514439 3.3471831C40.8717572 2.6915493 41.7677654 2.34647887 42.9739302 2.34647887 43.490858 2.34647887 43.973324 2.41549296 44.3868662 2.55352113 44.8004084 2.6915493 45.145027 2.86408451 45.3517981 3.07112676 45.5585692 3.27816901 45.7308785 3.55422535 45.7998022 3.83028169 45.8687259 4.03732394 45.8687259 4.34788732 45.8687259 4.83098592L45.8687259 8.55774648 44.4213281 8.55774648 44.4213281 4.86549296C44.4213281 4.45140845 44.3524044 4.14084507 44.2490188 3.93380282 44.1456332 3.72676056 43.9388621 3.55422535 43.6631673 3.45070423 43.3874725 3.31267606 43.042854 3.27816901 42.6637736 3.27816901 42.0434602 3.27816901 41.5265324 3.41619718 41.0785284 3.69225352 40.6305243 3.96830986 40.4237532 4.48591549 40.4237532 5.27957746L40.4237532 8.59225352 38.9418935 8.59225352 38.9418935 8.55774648zM53.6226427 7.83309859C53.0712531 8.14366197 52.5887871 8.38521127 52.0718593 8.52323944 51.5893934 8.66126761 51.0380038 8.73028169 50.4866141 8.73028169 49.5561441 8.73028169 48.8324452 8.55774648 48.3155174 8.2471831 47.7985896 7.93661972 47.5573566 7.52253521 47.5573566 7.00492958 47.5573566 6.6943662 47.6607422 6.4528169 47.8330515 6.17676056 48.0398226 5.93521127 48.2810556 5.72816901 48.5912122 5.59014085 48.9013689 5.45211268 49.2459874 5.31408451 49.6250678 5.24507042 49.9007626 5.17605634 50.3487667 5.1415493 50.9001564 5.10704225 52.0718593 5.00352113 52.9334057 4.9 53.4847953 4.76197183L53.4847953 4.48591549C53.4847953 4.07183099 53.3469479 3.76126761 53.0712531 3.58873239 52.6921727 3.3471831 52.140783 3.24366197 51.4170841 3.24366197 50.7278471 3.24366197 50.2453812 3.31267606 49.9007626 3.48521127 49.590606 3.65774648 49.349373 3.96830986 49.1770637 4.38239437L47.7641278 4.2443662C47.9019752 3.83028169 48.1087463 3.45070423 48.3844411 3.20915493 48.6945978 2.93309859 49.10814 2.72605634 49.6595297 2.58802817 50.2109193 2.45 50.8656945 2.38098592 51.5893934 2.38098592 52.3130923 2.38098592 52.8989438 2.45 53.3469479 2.55352113 53.794952 2.6915493 54.1395705 2.82957746 54.3463416 3.00211268 54.5531127 3.17464789 54.725422 3.41619718 54.7943457 3.69225352 54.8288076 3.86478873 54.8632694 4.17535211 54.8632694 4.62394366L54.8632694 6.00422535C54.8632694 6.97042254 54.8977313 7.55704225 54.966655 7.83309859 55.0355787 8.07464789 55.1389642 8.31619718 55.3457353 8.55774648L53.8294138 8.55774648C53.7604901 8.35070423 53.6915664 8.10915493 53.6226427 7.83309859zM53.5192572 5.52112676C53.0023294 5.65915493 52.2097068 5.7971831 51.1758512 5.90070423 50.5899997 5.96971831 50.1764574 6.03873239 49.9007626 6.10774648 49.6595297 6.17676056 49.4527585 6.28028169 49.3149111 6.4528169 49.1770637 6.59084507 49.10814 6.76338028 49.10814 6.93591549 49.10814 7.21197183 49.2459874 7.45352113 49.5561441 7.62605634 49.8318389 7.79859155 50.279843 7.90211268 50.8312326 7.90211268 51.3826223 7.90211268 51.8650882 7.79859155 52.3130923 7.62605634 52.7610964 7.45352113 53.0712531 7.21197183 53.2780242 6.90140845 53.4503335 6.65985915 53.5192572 6.31478873 53.5192572 5.86619718L53.5192572 5.52112676z"/>
      <polygon points="57.62 8.558 57.62 7.385 59.274 7.385 59.274 8.558"/>
      <path d="M61.7901018 8.55774648L61.7901018 2.48450704 63.0996522 2.48450704 63.0996522 3.3471831C63.7199655 2.6915493 64.6159737 2.34647887 65.8221385 2.34647887 66.3390663 2.34647887 66.8215323 2.41549296 67.2350745 2.55352113 67.6486167 2.6915493 67.9932353 2.86408451 68.2000064 3.07112676 68.4067775 3.27816901 68.5790868 3.55422535 68.6480105 3.83028169 68.7169342 4.03732394 68.7169342 4.34788732 68.7169342 4.83098592L68.7169342 8.55774648 67.2695364 8.55774648 67.2695364 4.86549296C67.2695364 4.45140845 67.2006127 4.14084507 67.0972271 3.93380282 66.9938415 3.72676056 66.7870704 3.55422535 66.5113756 3.45070423 66.2356808 3.31267606 65.8910623 3.27816901 65.5119819 3.27816901 64.8916685 3.27816901 64.3747407 3.41619718 63.9267367 3.69225352 63.4787326 3.96830986 63.2719615 4.48591549 63.2719615 5.27957746L63.2719615 8.59225352 61.7901018 8.59225352 61.7901018 8.55774648zM76.7465458 6.62535211L78.2284055 6.76338028C77.9871725 7.38450704 77.5736303 7.86760563 76.9188551 8.21267606 76.2985418 8.55774648 75.4714573 8.73028169 74.4720636 8.73028169 73.2314369 8.73028169 72.2320431 8.45422535 71.5083442 7.90211268 70.7846453 7.35 70.405565 6.59084507 70.405565 5.59014085 70.405565 4.55492958 70.7846453 3.76126761 71.5083442 3.20915493 72.2320431 2.65704225 73.196975 2.34647887 74.368678 2.34647887 75.5059191 2.34647887 76.4363892 2.62253521 77.1600881 3.17464789 77.883787 3.72676056 78.2284055 4.52042254 78.2284055 5.52112676L78.2284055 5.7971831 71.8874246 5.7971831C71.9563483 6.4528169 72.1975813 6.97042254 72.6800472 7.31549296 73.1625132 7.66056338 73.7483647 7.83309859 74.4720636 7.83309859 74.9889914 7.83309859 75.4369954 7.72957746 75.8160758 7.52253521 76.229618 7.35 76.5397747 7.03943662 76.7465458 6.62535211zM72.025272 4.96901408L76.7810077 4.96901408C76.712084 4.45140845 76.5397747 4.07183099 76.229618 3.83028169 75.781614 3.45070423 75.1613006 3.24366197 74.4376017 3.24366197 73.7828265 3.24366197 73.2314369 3.41619718 72.7489709 3.72676056 72.3009668 4.0028169 72.0597339 4.41690141 72.025272 4.96901408zM83.2253741 7.66056338L83.4321453 8.55774648C83.018603 8.62676056 82.6739845 8.66126761 82.329366 8.66126761 81.8124382 8.66126761 81.3988959 8.59225352 81.1232011 8.48873239 80.8475063 8.38521127 80.6407352 8.21267606 80.5028878 8.04014085 80.3995022 7.83309859 80.3305785 7.45352113 80.3305785 6.83239437L80.3305785 3.3471831 79.2622611 3.3471831 79.2622611 2.55352113 80.3305785 2.55352113 80.3305785 1.03521127 81.7779763.414084507 81.7779763 2.51901408 83.2253741 2.51901408 83.2253741 3.31267606 81.7779763 3.31267606 81.7779763 6.86690141C81.7779763 7.17746479 81.8124382 7.35 81.8469 7.41901408 81.8813619 7.48802817 81.9847474 7.55704225 82.088133 7.62605634 82.1915186 7.66056338 82.3638278 7.69507042 82.5705989 7.69507042 82.7429082 7.69507042 82.9496793 7.66056338 83.2253741 7.66056338z"/>
    </g>
    <path fill="#006838" fill-rule="nonzero" d="M53.5881809,8.59225352 C53.5881809,7.52253521 53.8638757,6.72887324 54.4497272,6.21126761 C54.9321931,5.7971831 55.4835828,5.5556338 56.1728198,5.5556338 C56.9309806,5.5556338 57.5512939,5.83169014 58.0337599,6.34929577 C58.5162258,6.86690141 58.7574588,7.5915493 58.7574588,8.48873239 C58.7574588,9.21338028 58.6540732,9.8 58.4473021,10.2485915 C58.240531,10.6626761 57.9303743,11.0077465 57.5168321,11.2492958 C57.1032898,11.4908451 56.6552857,11.5943662 56.2072817,11.5943662 C55.4491209,11.5943662 54.8288076,11.3528169 54.3463416,10.8352113 C53.8294138,10.2830986 53.5881809,9.5584507 53.5881809,8.59225352 Z M54.5531127,8.59225352 C54.5531127,9.31690141 54.6909601,9.86901408 55.0011168,10.2485915 C55.3112735,10.628169 55.6903539,10.8007042 56.1728198,10.8007042 C56.6208239,10.8007042 56.9999043,10.628169 57.3100609,10.2485915 C57.6202176,9.86901408 57.758065,9.31690141 57.758065,8.55774648 C57.758065,7.83309859 57.6202176,7.31549296 57.3100609,6.93591549 C56.9999043,6.55633803 56.6208239,6.38380282 56.1728198,6.38380282 C55.7248157,6.38380282 55.3112735,6.55633803 55.0011168,6.93591549 C54.6909601,7.28098592 54.5531127,7.83309859 54.5531127,8.59225352 Z"/>
    <g fill="#A7A9AC" fill-rule="nonzero" transform="translate(59.619 5.521)">
      <path d="M.206771116 8.14366197L.206771116.172535211 1.06831743.172535211 1.06831743.931690141C1.27508855.655633803 1.48185966.414084507 1.75755448.276056338 1.99878745.138028169 2.30894413.0690140845 2.65356265.0690140845 3.13602859.0690140845 3.54957082.207042254 3.89418935.448591549 4.23880788.690140845 4.5145027 1.06971831 4.68681196 1.51830986 4.85912122 1.96690141 4.96250678 2.48450704 4.96250678 3.03661972 4.96250678 3.62323944 4.85912122 4.14084507 4.65235011 4.62394366 4.44557899 5.10704225 4.16988417 5.45211268 3.79080379 5.69366197 3.41172341 5.93521127 2.99818118 6.07323944 2.58463895 6.07323944 2.27448227 6.07323944 1.99878745 6.00422535 1.75755448 5.86619718 1.51632152 5.72816901 1.3095504 5.5556338 1.13724114 5.34859155L1.13724114 8.14366197.206771116 8.14366197zM1.03385558 3.1056338C1.03385558 3.83028169 1.17170299 4.38239437 1.44739781 4.76197183 1.72309263 5.10704225 2.06771116 5.27957746 2.48125339 5.27957746 2.89479562 5.27957746 3.23941415 5.10704225 3.54957082 4.72746479 3.8597275 4.34788732 3.99757491 3.79577465 3.99757491 3.03661972 3.99757491 2.31197183 3.8597275 1.75985915 3.58403267 1.38028169 3.30833785 1.00070423 2.96371933.828169014 2.5501771.828169014 2.17109672.828169014 1.79201634 1.03521127 1.51632152 1.41478873 1.17170299 1.7943662 1.03385558 2.34647887 1.03385558 3.1056338zM9.821628 4.07183099L10.7865599 4.20985915C10.6487125 4.79647887 10.3385558 5.24507042 9.95947541 5.59014085 9.54593318 5.90070423 9.02900539 6.07323944 8.40869205 6.07323944 7.61606943 6.07323944 6.96129423 5.7971831 6.51329015 5.27957746 6.03082421 4.76197183 5.8240531 4.03732394 5.8240531 3.1056338 5.8240531 2.13943662 6.06528607 1.38028169 6.547752.862676056 7.03021794.31056338 7.65053129.0690140845 8.40869205.0690140845 9.13239095.0690140845 9.7527043.345070423 10.2007084.862676056 10.6487125 1.38028169 10.8899454 2.13943662 10.8899454 3.07112676L10.8899454 3.3471831 6.82344682 3.3471831C6.85790868 3.96830986 7.03021794 4.45140845 7.34037461 4.79647887 7.65053129 5.1415493 8.02961167 5.31408451 8.47761575 5.31408451 8.82223428 5.31408451 9.0979291 5.21056338 9.33916207 5.03802817 9.47700948 4.79647887 9.68378059 4.48591549 9.821628 4.07183099zM6.75452312 2.51901408L9.821628 2.51901408C9.78716615 2.03591549 9.64931874 1.65633803 9.47700948 1.41478873 9.1668528 1.03521127 8.78777242.862676056 8.33976834.862676056 7.92622611.862676056 7.54714573 1.00070423 7.27145091 1.31126761 6.96129423 1.58732394 6.78898497 2.00140845 6.75452312 2.51901408zM11.923801 5.93521127L11.923801.172535211 12.7508855.172535211 12.7508855 1.00070423C13.1644277.379577465 13.7502792.0345070423 14.50844.0345070423 14.8530585.0345070423 15.1287533.103521127 15.4044481.207042254 15.680143.345070423 15.8869141.483098592 16.0247615.690140845 16.1626089.897183099 16.2659944 1.13873239 16.3004563 1.41478873 16.3349182 1.58732394 16.3349182 1.89788732 16.3349182 2.38098592L16.3349182 5.93521127 15.4044481 5.93521127 15.4044481 2.41549296C15.4044481 2.00140845 15.3699863 1.72535211 15.3010626 1.51830986 15.2321389 1.31126761 15.0942915 1.17323944 14.9219822 1.03521127 14.7496729.931690141 14.50844.862676056 14.267207.862676056 13.8881266.862676056 13.5435081 1.00070423 13.2333514 1.24225352 12.9576566 1.51830986 12.8198092 2.00140845 12.8198092 2.76056338L12.8198092 5.90070423 11.923801 5.90070423 11.923801 5.93521127z"/>
    </g>
    <path fill="#006838" fill-rule="nonzero" d="M79.98596,9.73098592 L80.91643,9.59295775 C80.9508919,9.97253521 81.1232011,10.2830986 81.3299722,10.4901408 C81.5712052,10.6971831 81.8813619,10.8007042 82.329366,10.8007042 C82.7429082,10.8007042 83.0875267,10.6971831 83.2942978,10.5246479 C83.501069,10.3521127 83.6044545,10.1450704 83.6044545,9.86901408 C83.6044545,9.66197183 83.501069,9.48943662 83.3287597,9.35140845 C83.1909123,9.24788732 82.8807556,9.1443662 82.3638278,9.00633803 C81.6745908,8.83380282 81.2265867,8.66126761 80.9508919,8.52323944 C80.675197,8.38521127 80.5028878,8.21267606 80.3650404,7.97112676 C80.227193,7.72957746 80.1582692,7.48802817 80.1582692,7.21197183 C80.1582692,6.97042254 80.227193,6.72887324 80.3305785,6.48732394 C80.4339641,6.28028169 80.6062733,6.07323944 80.7785826,5.93521127 C80.91643,5.83169014 81.1232011,5.72816901 81.3644341,5.65915493 C81.6056671,5.59014085 81.8813619,5.5556338 82.1570567,5.5556338 C82.5705989,5.5556338 82.9496793,5.62464789 83.2942978,5.76267606 C83.6044545,5.90070423 83.8456875,6.07323944 84.0179967,6.28028169 C84.1558442,6.48732394 84.2936916,6.79788732 84.3281534,7.17746479 L83.4321453,7.31549296 C83.3976834,7.00492958 83.259836,6.79788732 83.0875267,6.62535211 C82.8807556,6.4528169 82.6050608,6.38380282 82.2604423,6.38380282 C81.8469,6.38380282 81.5367434,6.4528169 81.3644341,6.59084507 C81.1921248,6.72887324 81.0887393,6.90140845 81.0887393,7.1084507 C81.0887393,7.24647887 81.1232011,7.35 81.1921248,7.45352113 C81.2610485,7.55704225 81.3988959,7.66056338 81.5367434,7.72957746 C81.6401289,7.76408451 81.9158237,7.83309859 82.3638278,7.97112676 C83.018603,8.14366197 83.4666071,8.31619718 83.7423019,8.41971831 C84.0179967,8.52323944 84.190306,8.69577465 84.3626153,8.93732394 C84.5004627,9.1443662 84.5693864,9.45492958 84.5693864,9.76549296 C84.5693864,10.0760563 84.4660008,10.3866197 84.2936916,10.6971831 C84.1213823,10.9732394 83.8456875,11.2147887 83.501069,11.3528169 C83.1564504,11.5253521 82.7773701,11.5943662 82.329366,11.5943662 C81.6056671,11.5943662 81.0887393,11.421831 80.7096589,11.1112676 C80.3305785,10.8007042 80.0893455,10.3521127 79.98596,9.73098592 Z"/>
    <g fill="#A7A9AC" fill-rule="nonzero" transform="translate(85.12 5.521)">
      <path d="M.172309263 3.07112676C.172309263 2.00140845.448004084 1.20774648 1.03385558.690140845 1.51632152.276056338 2.06771116.0345070423 2.75694821.0345070423 3.51510897.0345070423 4.13542232.31056338 4.61788825.828169014 5.10035419 1.34577465 5.34158716 2.07042254 5.34158716 2.96760563 5.34158716 3.69225352 5.2382016 4.27887324 5.03143049 4.72746479 4.82465937 5.1415493 4.5145027 5.48661972 4.10096046 5.72816901 3.68741823 5.96971831 3.23941415 6.07323944 2.79141006 6.07323944 2.03324931 6.07323944 1.41293596 5.83169014.930470021 5.31408451.413542232 4.76197183.172309263 4.03732394.172309263 3.07112676zM1.13724114 3.07112676C1.13724114 3.79577465 1.27508855 4.34788732 1.58524522 4.72746479 1.8954019 5.10704225 2.27448227 5.27957746 2.75694821 5.27957746 3.2049523 5.27957746 3.58403267 5.10704225 3.89418935 4.72746479 4.20434602 4.34788732 4.34219343 3.79577465 4.34219343 3.03661972 4.34219343 2.31197183 4.20434602 1.7943662 3.89418935 1.41478873 3.58403267 1.03521127 3.2049523.862676056 2.75694821.862676056 2.30894413.862676056 1.8954019 1.03521127 1.58524522 1.41478873 1.27508855 1.75985915 1.13724114 2.31197183 1.13724114 3.07112676zM9.99393727 5.93521127L9.99393727 5.07253521C9.58039503 5.72816901 8.99454354 6.03873239 8.27084463 6.03873239 7.96068796 6.03873239 7.65053129 5.96971831 7.37483647 5.83169014 7.09914164 5.69366197 6.89237053 5.52112676 6.75452312 5.34859155 6.61667571 5.1415493 6.51329015 4.9 6.4788283 4.62394366 6.44436644 4.41690141 6.40990459 4.14084507 6.40990459 3.72676056L6.40990459.172535211 7.34037461.172535211 7.34037461 3.38169014C7.34037461 3.89929577 7.37483647 4.2443662 7.40929832 4.41690141 7.47822202 4.6584507 7.58160758 4.86549296 7.7883787 5.03802817 7.96068796 5.17605634 8.20192093 5.24507042 8.47761575 5.24507042 8.75331057 5.24507042 9.02900539 5.17605634 9.27023836 5.00352113 9.51147133 4.83098592 9.68378059 4.6584507 9.78716615 4.38239437 9.89055171 4.14084507 9.92501356 3.76126761 9.92501356 3.24366197L9.92501356.172535211 10.8554836.172535211 10.8554836 5.93521127 9.99393727 5.93521127zM12.2339577 5.93521127L12.2339577.172535211 13.0610422.172535211 13.0610422 1.03521127C13.2678133.621126761 13.4745844.345070423 13.6468936.241549296 13.8192029.103521127 14.025974.0345070423 14.2327451.0345070423 14.5429018.0345070423 14.8530585.138028169 15.197677.345070423L14.8875203 1.24225352C14.6462874 1.10422535 14.4395163 1.03521127 14.1982833 1.03521127 13.9915122 1.03521127 13.8192029 1.10422535 13.6468936 1.24225352 13.4745844 1.38028169 13.3711988 1.5528169 13.3022751 1.75985915 13.1988896 2.10492958 13.1644277 2.48450704 13.1644277 2.89859155L13.1644277 5.90070423 12.2339577 5.90070423 12.2339577 5.93521127zM19.3330993 3.83028169L20.2291075 3.96830986C20.1257219 4.62394366 19.884489 5.1415493 19.4709467 5.52112676 19.0574045 5.90070423 18.5404767 6.07323944 17.9546252 6.07323944 17.1964645 6.07323944 16.610613 5.83169014 16.1626089 5.31408451 15.7146048 4.79647887 15.4733718 4.07183099 15.4733718 3.1056338 15.4733718 2.48450704 15.5767574 1.93239437 15.7835285 1.48380282 15.9902996 1.00070423 16.2659944.655633803 16.6795367.448591549 17.0930789.207042254 17.5066211.103521127 17.9890871.103521127 18.5749386.103521127 19.0574045.276056338 19.4364849.586619718 19.8155653.897183099 20.0567982 1.34577465 20.1601838 1.93239437L19.2641756 2.07042254C19.1952519 1.69084507 19.0229427 1.38028169 18.8161715 1.20774648 18.6094004 1.00070423 18.3337056.931690141 18.0235489.931690141 17.541083.931690141 17.1620026 1.10422535 16.8863078 1.44929577 16.610613 1.7943662 16.4383037 2.34647887 16.4383037 3.1056338 16.4383037 3.86478873 16.5761511 4.45140845 16.8518459 4.79647887 17.1275408 5.1415493 17.5066211 5.31408451 17.9546252 5.31408451 18.3337056 5.31408451 18.6094004 5.21056338 18.8506334 4.96901408 19.1263282 4.69295775 19.2986375 4.31338028 19.3330993 3.83028169zM24.8125339 4.07183099L25.7774658 4.20985915C25.6396184 4.79647887 25.3294617 5.24507042 24.9503813 5.59014085 24.5368391 5.90070423 24.0199113 6.07323944 23.3995979 6.07323944 22.6069753 6.07323944 21.9522001 5.7971831 21.504196 5.27957746 21.0217301 4.76197183 20.814959 4.03732394 20.814959 3.1056338 20.814959 2.13943662 21.056192 1.38028169 21.5386579.862676056 22.0211238.31056338 22.6414372.0690140845 23.3995979.0690140845 24.1232969.0690140845 24.7436102.345070423 25.1916143.862676056 25.6396184 1.38028169 25.8808513 2.13943662 25.8808513 3.07112676L25.8808513 3.3471831 21.7109672 3.3471831C21.745429 3.96830986 21.9177383 4.45140845 22.227895 4.79647887 22.5380516 5.1415493 22.917132 5.31408451 23.3651361 5.31408451 23.7097546 5.31408451 23.9854494 5.21056338 24.2266824 5.03802817 24.4679154 4.79647887 24.6746865 4.48591549 24.8125339 4.07183099zM21.745429 2.51901408L24.8125339 2.51901408C24.7780721 2.03591549 24.6402246 1.65633803 24.4679154 1.41478873 24.1577587 1.03521127 23.7786783.862676056 23.3306742.862676056 22.917132.862676056 22.5380516 1.00070423 22.2623568 1.31126761 21.9522001 1.58732394 21.7798909 2.00140845 21.745429 2.51901408z"/>
    </g>
    <g fill="#006838" fill-rule="nonzero" transform="translate(114.413 3.45)">
      <path d="M4.13542232 5.90070423L5.03143049 6.03873239C4.92804493 6.6943662 4.68681196 7.21197183 4.27326973 7.5915493 3.8597275 7.97112676 3.34279971 8.14366197 2.75694821 8.14366197 1.99878745 8.14366197 1.41293596 7.90211268.964931874 7.38450704.51692779 6.86690141.275694821 6.14225352.275694821 5.17605634.275694821 4.55492958.379080379 4.0028169.585851495 3.55422535.792622611 3.07112676 1.06831743 2.72605634 1.48185966 2.51901408 1.8954019 2.27746479 2.30894413 2.17394366 2.79141006 2.17394366 3.37726156 2.17394366 3.8597275 2.34647887 4.23880788 2.65704225 4.61788825 2.96760563 4.85912122 3.41619718 4.96250678 4.0028169L4.06649861 4.14084507C3.99757491 3.76126761 3.82526564 3.45070423 3.61849453 3.27816901 3.41172341 3.07112676 3.13602859 3.00211268 2.82587192 3.00211268 2.34340598 3.00211268 1.9643256 3.17464789 1.68863078 3.51971831 1.41293596 3.86478873 1.2406267 4.41690141 1.2406267 5.17605634 1.2406267 5.93521127 1.37847411 6.52183099 1.65416893 6.86690141 1.92986375 7.21197183 2.30894413 7.38450704 2.75694821 7.38450704 3.13602859 7.38450704 3.41172341 7.28098592 3.65295638 7.03943662 3.9286512 6.76338028 4.06649861 6.38380282 4.13542232 5.90070423zM5.85851495 8.0056338L5.85851495.0690140845 6.78898497.0690140845 6.78898497 2.93309859C7.23698906 2.41549296 7.75391684 2.13943662 8.4431539 2.13943662 8.85669613 2.13943662 9.20131466 2.2084507 9.51147133 2.38098592 9.821628 2.55352113 10.0283991 2.79507042 10.1662465 3.07112676 10.3040939 3.38169014 10.3730176 3.79577465 10.3730176 4.34788732L10.3730176 8.0056338 9.44254762 8.0056338 9.44254762 4.34788732C9.44254762 3.86478873 9.33916207 3.51971831 9.13239095 3.27816901 8.92561983 3.07112676 8.64992501 2.93309859 8.27084463 2.93309859 7.99514981 2.93309859 7.75391684 3.00211268 7.47822202 3.17464789 7.23698906 3.31267606 7.06467979 3.51971831 6.96129423 3.79577465 6.85790868 4.03732394 6.82344682 4.41690141 6.82344682 4.86549296L6.82344682 8.0056338 5.85851495 8.0056338zM11.7170299 1.17323944L11.7170299.0345070423 12.6474999.0345070423 12.6474999 1.17323944 11.7170299 1.17323944zM11.7170299 8.0056338L11.7170299 2.24295775 12.6474999 2.24295775 12.6474999 8.0056338 11.7170299 8.0056338zM14.0604359 8.0056338L14.0604359 2.24295775 14.8875203 2.24295775 14.8875203 3.07112676C15.3010626 2.45 15.8869141 2.10492958 16.6450748 2.10492958 16.9896934 2.10492958 17.2653882 2.17394366 17.541083 2.27746479 17.8167778 2.41549296 18.0235489 2.55352113 18.1613963 2.76056338 18.2992438 2.96760563 18.4026293 3.20915493 18.4370912 3.48521127 18.471553 3.65774648 18.471553 3.96830986 18.471553 4.45140845L18.471553 8.0056338 17.5755448 8.0056338 17.5755448 4.48591549C17.5755448 4.07183099 17.541083 3.79577465 17.4721593 3.58873239 17.4032356 3.38169014 17.2653882 3.24366197 17.0930789 3.1056338 16.9207696 3.00211268 16.6795367 2.93309859 16.4383037 2.93309859 16.0592233 2.93309859 15.7146048 3.07112676 15.4044481 3.31267606 15.1287533 3.58873239 14.9909059 4.07183099 14.9909059 4.83098592L14.9909059 7.97112676 14.0604359 7.97112676 14.0604359 8.0056338zM23.5029835 7.31549296C23.158365 7.62605634 22.8137465 7.83309859 22.5035898 7.97112676 22.1934331 8.10915493 21.8488146 8.14366197 21.4697342 8.14366197 20.8838827 8.14366197 20.4014168 8.0056338 20.0912601 7.69507042 19.7811034 7.38450704 19.6087942 7.00492958 19.6087942 6.52183099 19.6087942 6.24577465 19.6777179 5.96971831 19.7811034 5.76267606 19.9189508 5.52112676 20.0567982 5.34859155 20.2635694 5.21056338 20.4703405 5.07253521 20.6771116 4.96901408 20.9183446 4.9 21.0906538 4.86549296 21.3663486 4.79647887 21.745429 4.76197183 22.5035898 4.6584507 23.0549794 4.55492958 23.3995979 4.41690141L23.3995979 4.17535211C23.3995979 3.76126761 23.2962124 3.48521127 23.1239031 3.3471831 22.8826702 3.14014085 22.5380516 3.00211268 22.0555857 3.00211268 21.6075816 3.00211268 21.2974249 3.07112676 21.0906538 3.24366197 20.8838827 3.41619718 20.7460353 3.69225352 20.6426497 4.10633803L19.7466416 3.96830986C19.8155653 3.55422535 19.9534127 3.24366197 20.1601838 2.96760563 20.3324931 2.72605634 20.6081879 2.51901408 20.9872683 2.38098592 21.3318868 2.24295775 21.745429 2.17394366 22.227895 2.17394366 22.7103609 2.17394366 23.0894413 2.24295775 23.3651361 2.34647887 23.6408309 2.45 23.8820639 2.62253521 24.0199113 2.79507042 24.1577587 2.96760563 24.2611443 3.17464789 24.2956061 3.45070423 24.330068 3.62323944 24.330068 3.93380282 24.330068 4.34788732L24.330068 5.65915493C24.330068 6.55633803 24.3645298 7.14295775 24.3989917 7.38450704 24.4334535 7.62605634 24.5023772 7.86760563 24.6402246 8.07464789L23.6752928 8.07464789C23.6063691 7.79859155 23.5374454 7.55704225 23.5029835 7.31549296zM23.4340598 5.10704225C23.0894413 5.24507042 22.6069753 5.38309859 21.9177383 5.48661972 21.5386579 5.5556338 21.2629631 5.62464789 21.1251157 5.69366197 20.9528064 5.76267606 20.8494208 5.86619718 20.7460353 6.00422535 20.6771116 6.14225352 20.6081879 6.31478873 20.6081879 6.4528169 20.6081879 6.72887324 20.7115734 6.93591549 20.8838827 7.1084507 21.056192 7.28098592 21.3318868 7.38450704 21.7109672 7.38450704 22.0555857 7.38450704 22.4002042 7.31549296 22.675899 7.14295775 22.9515939 6.97042254 23.158365 6.76338028 23.2962124 6.4528169 23.3995979 6.24577465 23.4340598 5.90070423 23.4340598 5.48661972L23.4340598 5.10704225z"/>
    </g>
    <g fill-rule="nonzero" transform="translate(52.382 13.803)">
      <path fill="#3CAB52" d="M2.20555857 3.93380282C1.75755448 3.93380282 1.44739781 3.83028169 1.2406267 3.65774648 1.06831743 3.48521127.964931874 3.14014085.964931874 2.6915493.964931874 2.27746479 1.06831743 2.00140845 1.2406267 1.82887324 1.41293596 1.65633803 1.75755448 1.5528169 2.20555857 1.5528169L18.2992438 1.5528169C18.7817097 1.5528169 19.0918664 1.65633803 19.2641756 1.82887324 19.4364849 2.00140845 19.5054086 2.31197183 19.5054086 2.6915493 19.5054086 3.14014085 19.4364849 3.45070423 19.2641756 3.65774648 19.0918664 3.83028169 18.7817097 3.93380282 18.2992438 3.93380282L15.8869141 3.93380282 15.8869141 9.66197183 19.4709467 9.66197183C19.9534127 9.66197183 20.2635694 9.73098592 20.4358786 9.90352113 20.6081879 10.0760563 20.6771116 10.3176056 20.6771116 10.6971831 20.6771116 11.1112676 20.6081879 11.421831 20.4358786 11.6288732 20.2635694 11.8359155 19.9534127 11.9394366 19.4709467 11.9394366L15.8869141 11.9394366 15.8869141 19.3929577C15.8869141 19.8760563 15.7490667 20.1866197 15.5078337 20.3591549 15.2321389 20.5316901 14.956444 20.6007042 14.5773637 20.6007042 14.1982833 20.6007042 13.8881266 20.4971831 13.6468936 20.3246479 13.3711988 20.1521127 13.2678133 19.8070423 13.2678133 19.3584507L13.2678133 11.9049296 7.47822202 11.9049296C7.40929832 12.9401408 7.27145091 13.871831 7.03021794 14.7 6.82344682 15.528169 6.51329015 16.2528169 6.13420977 16.9084507 5.75512939 17.5640845 5.30712531 18.1852113 4.75573566 18.7028169 4.20434602 19.2549296 3.58403267 19.8070423 2.89479562 20.3246479 2.48125339 20.6352113 2.10217301 20.7732394 1.72309263 20.7387324 1.34401225 20.7042254 1.06831743 20.5316901.861546316 20.1521127.620313348 19.7725352.51692779 19.4619718.620313348 19.1514085.723698906 18.8408451.964931874 18.5302817 1.3095504 18.2542254 1.86094004 17.8401408 2.37786783 17.4260563 2.79141006 17.0464789 3.2049523 16.6669014 3.54957082 16.2183099 3.8597275 15.7352113 4.13542232 15.2521127 4.37665529 14.7 4.54896455 14.0788732 4.72127381 13.4577465 4.82465937 12.7330986 4.89358308 11.9049296L1.41293596 11.9049296C.930470021 11.9049296.620313348 11.8014085.448004084 11.5943662.275694821 11.3873239.206771116 11.0767606.206771116 10.6626761.206771116 10.2830986.275694821 10.0415493.448004084 9.86901408.620313348 9.69647887.930470021 9.62746479 1.41293596 9.62746479L4.96250678 9.62746479 4.96250678 3.89929577 2.20555857 3.89929577 2.20555857 3.93380282zM7.47822202 9.66197183L13.1988896 9.66197183 13.1988896 3.93380282 7.47822202 3.93380282 7.47822202 9.66197183zM25.8463895 9.8C25.5706947 10.0760563 25.260538 10.1795775 24.9503813 10.1450704 24.6402246 10.1105634 24.2956061 9.90352113 23.8820639 9.52394366 23.7097546 9.42042254 23.4340598 9.21338028 23.1239031 8.93732394 22.8137465 8.66126761 22.4691279 8.41971831 22.1245094 8.14366197 21.8143527 7.83309859 21.6075816 7.55704225 21.5386579 7.28098592 21.4697342 7.00492958 21.5731198 6.6943662 21.8488146 6.28028169 22.3312805 5.65915493 22.9515939 5.65915493 23.7442165 6.21126761 24.0199113 6.4528169 24.3645298 6.6943662 24.7091483 6.97042254 25.0882287 7.24647887 25.3983854 7.48802817 25.6396184 7.72957746 25.949775 8.04014085 26.1565462 8.35070423 26.2599317 8.69577465 26.3977791 9.07535211 26.2599317 9.42042254 25.8463895 9.8zM26.3633173 13.5957746C26.0876225 14.7 25.7774658 15.7697183 25.4673091 16.7359155 25.1571524 17.7366197 24.7436102 18.7028169 24.2611443 19.6690141 24.0543731 20.0830986 23.7786783 20.3591549 23.3995979 20.4626761 23.0205176 20.5661972 22.675899 20.5316901 22.3657424 20.3591549 22.0211238 20.1521127 21.8143527 19.9105634 21.745429 19.6 21.6765053 19.2894366 21.7798909 18.8408451 22.0900475 18.3232394 22.5035898 17.5640845 22.8482083 16.7359155 23.1239031 15.8387324 23.3995979 14.9415493 23.6752928 13.9753521 23.9509876 12.9401408 24.0543731 12.4570423 24.2266824 12.1119718 24.4679154 11.9394366 24.7091483 11.7669014 25.019305 11.6978873 25.4673091 11.8014085 25.8808513 11.8704225 26.191008 12.0429577 26.3288554 12.3190141 26.5011647 12.5605634 26.5356265 13.0091549 26.3633173 13.5957746zM26.7423977 4.79647887C26.4667028 5.07253521 26.1565462 5.17605634 25.8808513 5.1415493 25.5706947 5.10704225 25.2260761 4.9 24.8125339 4.55492958 24.5368391 4.31338028 24.2266824 4.03732394 23.8820639 3.76126761 23.5374454 3.48521127 23.2617505 3.24366197 23.0549794 3.07112676 22.7103609 2.79507042 22.5035898 2.51901408 22.4691279 2.24295775 22.4346661 1.96690141 22.5035898 1.65633803 22.7792846 1.27676056 23.0205176.966197183 23.2962124.793661972 23.6408309.75915493 23.9854494.724647887 24.330068.862676056 24.6746865 1.13873239 24.9503813 1.34577465 25.1571524 1.51830986 25.3639235 1.65633803 25.5706947 1.82887324 25.7085421 1.96690141 25.8463895 2.07042254 25.9842369 2.2084507 26.1220843 2.31197183 26.2254699 2.41549296 26.3288554 2.51901408 26.4667028 2.62253521 26.6045502 2.76056338 26.9147069 3.07112676 27.121478 3.38169014 27.2248636 3.72676056 27.3282491 4.03732394 27.1904017 4.38239437 26.8113214 4.76197183L26.7423977 4.79647887zM32.979993 4.76197183C32.2562941 4.76197183 31.7738281 4.93450704 31.4981333 5.24507042 31.2224385 5.59014085 31.0845911 6.10774648 31.0845911 6.83239437L31.0845911 11.5253521C31.0845911 12.9056338 31.7049044 13.5957746 32.979993 13.5957746L34.9098567 13.5957746 34.9098567 17.6330986C34.9098567 17.8401408 34.8753949 17.978169 34.7720093 18.0471831 34.6686238 18.1161972 34.3929289 18.0816901 33.9449249 17.943662 33.4624589 17.8056338 33.1178404 17.7711268 32.9110693 17.8746479 32.7042982 17.978169 32.5664507 18.2197183 32.4630652 18.5647887 32.3596796 18.9788732 32.3596796 19.3239437 32.5319889 19.565493 32.6698363 19.8415493 33.0144548 20.0140845 33.5313826 20.0830986 34.2206197 20.2211268 34.8064712 20.2901408 35.2200134 20.2901408 35.6335556 20.2901408 36.012636 20.2211268 36.2883308 20.0140845 36.5640257 19.8415493 36.7363349 19.5309859 36.8397205 19.1514085 36.943106 18.771831 37.0120297 18.2542254 37.0120297 17.5985915L37.0120297 13.5612676 38.9418935 13.5612676C39.6655924 13.5612676 40.1825202 13.4232394 40.458215 13.1126761 40.7683717 12.8021127 40.9062191 12.284507 40.9062191 11.4908451L40.9062191 6.79788732C40.9062191 6.07323944 40.7683717 5.52112676 40.4926769 5.21056338 40.216982 4.86549296 39.7345161 4.72746479 39.045279 4.72746479L36.7707968 4.72746479C36.8397205 4.62394366 36.8741823 4.55492958 36.8741823 4.52042254 36.9086442 4.48591549 36.9086442 4.45140845 36.943106 4.45140845 37.184339 3.93380282 37.184339 3.51971831 36.9775679 3.24366197L40.699448 3.24366197C41.1474521 3.24366197 41.4231469 3.17464789 41.5954561 3.00211268 41.7333036 2.82957746 41.8366891 2.55352113 41.8366891 2.17394366 41.8366891 1.7943662 41.7677654 1.51830986 41.629918 1.31126761 41.4920706 1.10422535 41.1819139 1.03521127 40.7339098 1.03521127L29.706117 1.03521127C28.9824181 1.03521127 28.4654903 1.20774648 28.1553336 1.5528169 27.8451769 1.89788732 27.6728677 2.48450704 27.6728677 3.27816901L27.6728677 8.73028169C27.6728677 10.0070423 27.6728677 11.1112676 27.6384058 12.0084507 27.603944 12.9401408 27.5694821 13.7338028 27.5005584 14.4584507 27.4316347 15.1485915 27.3282491 15.7697183 27.1904017 16.321831 27.0525543 16.8739437 26.8802451 17.3570423 26.6734739 17.8401408 26.5700884 18.0816901 26.4667028 18.3232394 26.3977791 18.4957746 26.3288554 18.7028169 26.2943936 18.8753521 26.2943936 19.0133803 26.2943936 19.1859155 26.3288554 19.3239437 26.432241 19.4619718 26.5011647 19.6 26.6390121 19.7380282 26.8113214 19.8415493 27.121478 20.0485915 27.4316347 20.1176056 27.7073295 20.0485915 27.9830243 20.0140845 28.2587192 19.7380282 28.4999521 19.2204225 28.775647 18.5992958 29.0168799 17.943662 29.1891892 17.2535211 29.3614985 16.5633803 29.5338077 15.7697183 29.6371933 14.9415493 29.7405788 14.0788732 29.8095025 13.1816901 29.8439644 12.1464789 29.8784262 11.1457746 29.9128881 10.0070423 29.9128881 8.79929577L29.9128881 3.79577465C29.9128881 3.55422535 29.9473499 3.41619718 30.0162737 3.3471831 30.0851974 3.27816901 30.1541211 3.24366197 30.2575066 3.24366197L35.1510897 3.24366197C35.1166278 3.31267606 35.082166 3.3471831 35.082166 3.41619718 35.0477041 3.45070423 35.0132423 3.51971831 35.0132423 3.58873239 34.8064712 4.0028169 34.5997001 4.38239437 34.3584671 4.72746479L32.979993 4.76197183zM33.2901497 15.7007042C33.4624589 15.2521127 33.5313826 14.9070423 33.4969208 14.6309859 33.4624589 14.3549296 33.2556878 14.1823944 32.8766074 14.0098592 32.5319889 13.871831 32.2562941 13.8373239 32.049523 13.9753521 31.8427518 14.1133803 31.6359807 14.3549296 31.4981333 14.734507 31.3602859 15.1140845 31.2224385 15.4591549 31.1190529 15.7352113 31.0156674 16.0112676 30.87782 16.2873239 30.7399726 16.5288732 30.6021251 16.7704225 30.4642777 17.0119718 30.2919685 17.2880282 30.1196592 17.5640845 29.9473499 17.8401408 29.7405788 18.1852113 29.4993459 18.5647887 29.3614985 18.9098592 29.3959603 19.1859155 29.4304222 19.4619718 29.5338077 19.7035211 29.7750407 19.9105634 30.0851974 20.1521127 30.3608922 20.2211268 30.636587 20.1176056 30.9122818 20.0140845 31.1535148 19.8070423 31.3602859 19.4964789 31.7393663 18.8753521 32.1184467 18.2197183 32.4630652 17.5985915 32.7732219 16.9774648 33.0489167 16.356338 33.2901497 15.7007042zM38.6661987 8.17816901L33.2901497 8.17816901 33.2901497 7.17746479C33.2901497 7.00492958 33.3246115 6.93591549 33.3590734 6.90140845 33.3935352 6.86690141 33.4969208 6.83239437 33.5658445 6.83239437L38.3215801 6.83239437C38.5283513 6.83239437 38.6317368 6.93591549 38.6317368 7.17746479L38.6661987 8.17816901zM38.6661987 11.1802817C38.6661987 11.456338 38.5628131 11.5943662 38.356042 11.5943662L33.6003063 11.5943662C33.3935352 11.5943662 33.2901497 11.456338 33.2901497 11.1802817L33.2901497 10.1450704 38.6661987 10.1450704 38.6661987 11.1802817zM41.3542232 17.8401408C41.1819139 17.4950704 41.0096046 17.184507 40.8717572 16.9429577 40.7339098 16.7014085 40.5616006 16.4253521 40.4237532 16.1838028 40.2859057 15.9422535 40.1135965 15.7007042 39.9412872 15.4246479 39.768978 15.1830986 39.5622068 14.8725352 39.3554357 14.5619718 39.1142028 14.2169014 38.8385079 14.0443662 38.5283513 14.0098592 38.2526564 13.9753521 37.9769616 14.0788732 37.7701905 14.3204225 37.6323431 14.4584507 37.5289575 14.5964789 37.4944957 14.7690141 37.4600338 14.9070423 37.425572 15.0795775 37.4600338 15.2176056 37.4600338 15.3556338 37.5289575 15.493662 37.5634194 15.6316901 37.6323431 15.7697183 37.7012668 15.8732394 37.7701905 16.0112676 37.9424998 16.2528169 38.114809 16.4943662 38.2526564 16.7014085 38.3905038 16.9084507 38.5283513 17.15 38.7006605 17.3915493 38.8385079 17.6330986 38.9763553 17.8746479 39.1486646 18.1507042 39.3209739 18.4267606 39.4588213 18.7028169 39.6311305 19.0478873 39.8379017 19.4619718 40.0446728 19.7035211 40.2514439 19.8070423 40.458215 19.9105634 40.7339098 19.8760563 41.0440665 19.7380282 41.4231469 19.565493 41.5954561 19.3239437 41.629918 19.0133803 41.6988417 18.6338028 41.5954561 18.2542254 41.3542232 17.8401408zM51.4170841 1.38028169C51.4170841.897183099 51.5204697.586619718 51.7272408.414084507 51.9340119.241549296 52.2441686.172535211 52.7266345.172535211 53.1746386.172535211 53.4847953.241549296 53.6915664.414084507 53.8983375.586619718 54.0017231.897183099 54.0017231 1.38028169L54.0017231 4.03732394 59.2054628 4.03732394C59.7223906 4.03732394 60.1359329 4.07183099 60.4805514 4.10633803 60.8251699 4.14084507 61.031941 4.27887324 61.2042503 4.45140845 61.3765596 4.62394366 61.514407 4.86549296 61.5488688 5.17605634 61.6177925 5.48661972 61.6522544 5.90070423 61.6522544 6.41830986L61.6522544 12.8366197C61.6522544 13.2852113 61.6177925 13.6992958 61.5833307 13.9753521 61.514407 14.2859155 61.4110214 14.5274648 61.2387121 14.7 61.0664029 14.8725352 60.8251699 14.9760563 60.5150132 15.0450704 60.2048566 15.1140845 59.7913143 15.1485915 59.2399247 15.1485915L54.0017231 15.1485915 54.0017231 19.4964789C54.0017231 19.8760563 53.8983375 20.1521127 53.7260283 20.3591549 53.553719 20.5661972 53.2091005 20.7042254 52.7266345 20.7042254 52.1752449 20.7042254 51.8306264 20.6007042 51.6583171 20.428169 51.4860078 20.2556338 51.4170841 19.9105634 51.4170841 19.4619718L51.4170841 15.1140845 46.31673 15.1140845C45.7998022 15.1140845 45.3862599 15.0795775 45.0761033 15.0105634 44.7659466 14.9415493 44.5247136 14.8035211 44.3524044 14.6309859 44.1800951 14.4584507 44.0767095 14.2169014 44.0077858 13.906338 43.9388621 13.5957746 43.9388621 13.2161972 43.9388621 12.7676056L43.9388621 6.31478873C43.9388621 5.83169014 43.973324 5.45211268 44.0077858 5.1415493 44.0767095 4.83098592 44.1800951 4.58943662 44.3524044 4.41690141 44.5247136 4.2443662 44.7659466 4.14084507 45.0761033 4.07183099 45.3862599 4.0028169 45.7998022 3.96830986 46.31673 3.96830986L51.4170841 3.96830986 51.4170841 1.38028169zM46.9715052 6.55633803C46.764734 6.55633803 46.6268866 6.59084507 46.5579629 6.65985915 46.4890392 6.72887324 46.4890392 6.90140845 46.4890392 7.17746479L46.4890392 11.8704225C46.4890392 12.215493 46.5235011 12.4225352 46.5924248 12.4915493 46.6613485 12.5605634 46.7991959 12.5950704 47.0404289 12.5950704L51.451546 12.5950704 51.451546 6.55633803 46.9715052 6.55633803zM54.0017231 6.55633803L54.0017231 12.6295775 58.5162258 12.6295775C58.7919206 12.6295775 58.9642299 12.5950704 59.0331536 12.4915493 59.1020773 12.4225352 59.1020773 12.215493 59.1020773 11.8704225L59.1020773 7.17746479C59.1020773 6.90140845 59.0676154 6.72887324 58.9642299 6.65985915 58.8608443 6.59084507 58.6540732 6.55633803 58.3439165 6.55633803L54.0017231 6.55633803zM83.259836 17.6330986C83.259836 18.4267606 83.0875267 19.0133803 82.7773701 19.3929577 82.4672134 19.7725352 81.8813619 19.9450704 81.0198156 19.9450704L66.6836849 19.9450704C65.8221385 19.9450704 65.2707489 19.7725352 64.9605922 19.3929577 64.6504356 19.0133803 64.5125881 18.4267606 64.5125881 17.6330986L64.5125881 3.27816901C64.5125881 2.48450704 64.6504356 1.89788732 64.9261304 1.5528169 65.2018252 1.20774648 65.7876767 1.03521127 66.6147612 1.03521127L81.0198156 1.03521127C81.8813619 1.03521127 82.4672134 1.20774648 82.7773701 1.5528169 83.0875267 1.89788732 83.259836 2.48450704 83.259836 3.27816901L83.259836 17.6330986zM67.3384601 3.31267606C67.1661508 3.31267606 67.0283034 3.3471831 66.9249178 3.45070423 66.8559941 3.51971831 66.7870704 3.69225352 66.7870704 3.93380282L66.7870704 16.8049296C66.7870704 17.3915493 67.0283034 17.6676056 67.5107693 17.6676056L80.3650404 17.6676056C80.5373496 17.6676056 80.675197 17.5985915 80.7785826 17.4260563 80.8819682 17.2535211 80.91643 17.0464789 80.91643 16.8049296L80.91643 3.93380282C80.91643 3.72676056 80.8475063 3.58873239 80.7441207 3.48521127 80.6407352 3.38169014 80.4339641 3.3471831 80.1238074 3.3471831L67.3384601 3.3471831 67.3384601 3.31267606zM69.0270908 6.97042254C68.5446249 6.97042254 68.2000064 6.90140845 68.0276971 6.72887324 67.8553879 6.55633803 67.7864642 6.28028169 67.7864642 5.86619718 67.7864642 5.41760563 67.8553879 5.10704225 68.0276971 4.96901408 68.2000064 4.83098592 68.5446249 4.76197183 69.0270908 4.76197183L78.7108714 4.76197183C79.2277992 4.76197183 79.5724178 4.83098592 79.7102652 4.96901408 79.8481126 5.10704225 79.9514981 5.41760563 79.9514981 5.86619718 79.9514981 6.28028169 79.8825744 6.59084507 79.7102652 6.72887324 79.5379559 6.86690141 79.1933374 6.93591549 78.7108714 6.93591549L74.6788347 6.93591549 74.6788347 8.9028169 77.9871725 8.9028169C78.4696385 8.9028169 78.814257 8.97183099 78.9865663 9.10985915 79.1588755 9.24788732 79.2622611 9.52394366 79.2622611 9.93802817 79.2622611 10.3521127 79.1588755 10.628169 78.9865663 10.7661972 78.814257 10.9042254 78.4696385 10.9732394 77.9871725 10.9732394L77.5391684 10.9732394C77.8148633 11.2838028 78.0560962 11.5598592 78.2628674 11.8014085 78.4696385 12.0429577 78.6764096 12.3535211 78.9521044 12.6985915 79.1588755 12.9401408 79.2277992 13.2161972 79.2277992 13.4577465 79.2277992 13.6992958 79.1244137 13.906338 78.9176426 14.1133803L79.05549 14.1133803C79.5379559 14.1133803 79.8825744 14.2169014 80.0548837 14.3894366 80.227193 14.5619718 80.2961167 14.8725352 80.2961167 15.2521127 80.2961167 15.6661972 80.227193 15.9422535 80.0548837 16.0802817 79.8825744 16.2183099 79.5379559 16.2873239 79.05549 16.2873239L68.751396 16.2873239C68.2689301 16.2873239 67.9243116 16.2183099 67.7520023 16.0802817 67.579693 15.9422535 67.5107693 15.6661972 67.5107693 15.2521127 67.5107693 14.8380282 67.579693 14.5619718 67.7520023 14.3894366 67.9243116 14.2169014 68.2689301 14.1133803 68.751396 14.1133803L72.3354287 14.1133803 72.3354287 10.9732394 69.6129423 10.9732394C69.0960146 10.9732394 68.751396 10.9042254 68.6135486 10.7661972 68.4757012 10.628169 68.3723156 10.3521127 68.3723156 9.93802817 68.3723156 9.52394366 68.4412394 9.24788732 68.6135486 9.10985915 68.7858579 8.97183099 69.1304764 8.9028169 69.6129423 8.9028169L72.3354287 8.9028169 72.3354287 6.93591549 69.0270908 6.93591549 69.0270908 6.97042254zM75.9883851 12.6295775C75.7126903 12.3190141 75.5748428 12.0084507 75.5748428 11.7669014 75.5748428 11.5253521 75.6782284 11.2838028 75.8849995 11.0767606L74.6788347 11.0767606 74.6788347 14.2169014 77.3323973 14.2169014 77.1945499 14.0788732C77.1256262 14.0098592 77.1256262 13.9753521 77.0567025 13.9408451 76.9188551 13.7683099 76.8154695 13.6647887 76.7465458 13.5612676 76.6776221 13.4577465 76.6086984 13.3887324 76.5397747 13.2852113 76.470851 13.2161972 76.4019273 13.1126761 76.3330036 13.0091549 76.2640799 12.9056338 76.1262325 12.7676056 75.9883851 12.6295775z"/>
      <path fill="#000" d="M90.8069817 19.565493C90.8069817 19.9795775 90.738058 20.2556338 90.5657487 20.428169 90.3934395 20.6007042 90.048821 20.7042254 89.566355 20.7042254 89.1872746 20.7042254 88.877118 20.6352113 88.6703469 20.4626761 88.4291139 20.2901408 88.3257283 20.0140845 88.3257283 19.565493L88.3257283 12.5260563C88.1189572 12.6985915 87.9466479 12.9056338 87.7398768 13.078169 87.5331057 13.2507042 87.3607965 13.4232394 87.1540253 13.5957746 86.7404831 13.9753521 86.3269409 14.1478873 85.9478605 14.1823944 85.5687801 14.2169014 85.2586234 14.0443662 84.9829286 13.6647887 84.7416957 13.3542254 84.6727719 13.078169 84.7416957 12.8021127 84.8106194 12.5260563 85.0863142 12.215493 85.5343183 11.8704225 86.4992501 11.1112676 87.3607965 10.3176056 88.0844954 9.52394366 88.8081943 8.69577465 89.3940458 7.86760563 89.9109735 7.00492958 90.0832828 6.65985915 89.9798973 6.48732394 89.6008169 6.48732394L86.4647883 6.48732394C85.9823223 6.48732394 85.6377038 6.38380282 85.4653946 6.21126761 85.2930853 6.00422535 85.1896997 5.72816901 85.1896997 5.31408451 85.1896997 4.93450704 85.2930853 4.62394366 85.4998564 4.45140845 85.7066275 4.2443662 86.0167842 4.14084507 86.4647883 4.14084507L88.8081943 4.14084507C88.7392706 4.07183099 88.635885 3.96830986 88.4980376 3.79577465 88.2568046 3.41619718 88.0155717 3.1056338 87.7743387 2.79507042 87.5331057 2.48450704 87.2918727 2.17394366 87.0506398 1.86338028 86.8438687 1.62183099 86.774945 1.38028169 86.8094068 1.13873239 86.8783305.897183099 87.0161779.690140845 87.2574109.517605634 87.5331057.31056338 87.8432624.241549296 88.2223428.276056338 88.5669613.31056338 88.877118.448591549 89.0838891.724647887 89.1872746.862676056 89.2906602 1.00070423 89.3940458 1.13873239 89.4974313 1.27676056 89.6008169 1.41478873 89.7042024 1.5528169 89.807588 1.69084507 89.9454354 1.86338028 90.0832828 2.07042254 90.2211302 2.27746479 90.3934395 2.48450704 90.6002106 2.76056338 90.7725199 3.00211268 90.8759054 3.24366197 90.8414436 3.51971831 90.8069817 3.79577465 90.7035962 4.0028169 90.496825 4.14084507L91.0482147 4.14084507C91.9786847 4.14084507 92.5989981 4.38239437 92.9091547 4.9 93.2193114 5.41760563 93.1503877 6.03873239 92.7023836 6.79788732 92.2888414 7.55704225 91.8063754 8.31619718 91.2549858 9.10985915 91.7029899 9.52394366 92.1854558 9.93802817 92.5989981 10.3521127 93.0470021 10.7661972 93.4260825 11.1457746 93.7362392 11.4908451 94.1153196 11.9049296 94.3565525 12.25 94.3910144 12.5605634 94.4254762 12.8711268 94.253167 13.1816901 93.9085485 13.5267606 93.2882351 14.1133803 92.5989981 13.9408451 91.8063754 13.043662 91.6340662 12.8366197 91.4617569 12.6640845 91.2894477 12.4570423 91.1171384 12.284507 90.9448291 12.0774648 90.7725199 11.9049296L90.7725199 19.565493 90.8069817 19.565493zM95.0113277 7.76408451C94.5288618 7.76408451 94.2187051 7.66056338 94.0808577 7.41901408 93.9430103 7.17746479 93.8740866 6.90140845 93.8740866 6.48732394 93.8740866 6.10774648 93.9430103 5.7971831 94.0808577 5.59014085 94.2187051 5.38309859 94.5288618 5.24507042 95.0113277 5.24507042L97.6993522 5.24507042 97.6993522 1.31126761C97.6993522.862676056 97.8027378.552112676 98.0439708.379577465 98.2852037.207042254 98.5608986.138028169 98.9399789.138028169 99.3190593.138028169 99.629216.241549296 99.8359871.414084507 100.042758.586619718 100.180606.897183099 100.180606 1.31126761L100.180606 5.24507042 103.454482 5.24507042C103.902486 5.24507042 104.178181 5.34859155 104.35049 5.59014085 104.522799 5.7971831 104.591723 6.10774648 104.591723 6.48732394 104.591723 6.86690141 104.522799 7.17746479 104.35049 7.41901408 104.178181 7.62605634 103.902486 7.76408451 103.454482 7.76408451L100.180606 7.76408451 100.180606 17.6676056 104.143719 17.6676056C104.591723 17.6676056 104.867418 17.7711268 105.039727 18.0126761 105.212036 18.2197183 105.28096 18.5302817 105.28096 18.9098592 105.28096 19.2894366 105.212036 19.565493 105.039727 19.8070423 104.867418 20.0485915 104.591723 20.1521127 104.143719 20.1521127L93.5294681 20.1521127C93.081464 20.1521127 92.7713073 20.0485915 92.6334599 19.8760563 92.4956125 19.7035211 92.4266888 19.3584507 92.4266888 18.9098592 92.4266888 18.4612676 92.4956125 18.1507042 92.6334599 17.943662 92.7713073 17.7366197 93.081464 17.6676056 93.5294681 17.6676056L97.7338141 17.6676056 97.7338141 7.76408451 95.0113277 7.76408451zM125.958071 18.9788732C125.958071 19.8070423 125.510067 20.2211268 124.579597 20.2211268L109.829924 20.2211268C109.278535 20.2211268 108.864993 20.1866197 108.520374 20.1176056 108.175755 20.0485915 107.934522 19.9105634 107.727751 19.7380282 107.52098 19.565493 107.417595 19.2894366 107.348671 18.9788732 107.279747 18.6683099 107.245285 18.2542254 107.245285 17.7366197L107.245285 4.07183099C107.245285 3.55422535 107.279747 3.14014085 107.348671 2.82957746 107.417595 2.51901408 107.555442 2.24295775 107.727751 2.07042254 107.934522 1.86338028 108.175755 1.75985915 108.520374 1.65633803 108.864993 1.58732394 109.278535 1.5528169 109.829924 1.5528169L124.303902 1.5528169C124.786368 1.5528169 125.096525 1.65633803 125.268834 1.86338028 125.441144 2.07042254 125.510067 2.38098592 125.510067 2.79507042 125.510067 3.24366197 125.441144 3.55422535 125.268834 3.76126761 125.096525 3.93380282 124.786368 4.03732394 124.303902 4.03732394L110.519161 4.03732394C110.243467 4.03732394 110.036695 4.07183099 109.93331 4.17535211 109.829924 4.27887324 109.795463 4.41690141 109.795463 4.6584507L109.795463 17.15C109.795463 17.3570423 109.829924 17.5295775 109.93331 17.6330986 110.036695 17.7366197 110.209005 17.8056338 110.519161 17.8056338L124.614059 17.8056338C125.096525 17.8056338 125.475605 17.9091549 125.682377 18.0816901 125.820224 18.1852113 125.958071 18.5302817 125.958071 18.9788732zM123.752513 16.5633803C123.442356 16.8394366 123.132199 16.9774648 122.890967 16.9774648 122.615272 16.9774648 122.305115 16.7704225 121.960497 16.356338 121.581416 15.9767606 120.995565 15.4246479 120.306328 14.7690141 119.582629 14.1133803 118.790006 13.3887324 117.962922 12.5950704 117.583841 12.9746479 117.204761 13.3542254 116.860142 13.6992958 116.515524 14.0443662 116.136443 14.3894366 115.722901 14.7 115.343821 15.0450704 114.895817 15.3901408 114.447813 15.7352113 113.965347 16.0802817 113.448419 16.4598592 112.862567 16.8739437 112.552411 17.0809859 112.276716 17.184507 111.932097 17.2535211 111.587479 17.3225352 111.346246 17.184507 111.105013 16.8739437 110.898242 16.5978873 110.794856 16.2873239 110.794856 15.9422535 110.794856 15.5971831 111.001627 15.2866197 111.311784 15.0450704 112.17333 14.4584507 113.034877 13.8373239 113.827499 13.1816901 114.620122 12.5260563 115.412745 11.8014085 116.170905 10.9732394 115.688439 10.5591549 115.240435 10.1450704 114.826893 9.8 114.413351 9.45492958 113.999809 9.10985915 113.620728 8.79929577 113.241648 8.48873239 112.862567 8.17816901 112.517949 7.90211268 112.17333 7.62605634 111.79425 7.35 111.41517 7.03943662 111.070551 6.79788732 110.86378 6.48732394 110.86378 6.17676056 110.86378 5.86619718 110.967166 5.5556338 111.173937 5.27957746 111.449631 4.96901408 111.759788 4.79647887 112.069945 4.83098592 112.380101 4.86549296 112.72472 5.00352113 113.034877 5.27957746 113.413957 5.59014085 113.793037 5.90070423 114.172118 6.21126761 114.551198 6.48732394 114.895817 6.79788732 115.274897 7.1084507 115.653977 7.41901408 116.033058 7.72957746 116.412138 8.07464789 116.791219 8.41971831 117.239223 8.76478873 117.687227 9.17887324 117.997383 8.79929577 118.273078 8.45422535 118.548773 8.10915493 118.824468 7.79859155 119.065701 7.45352113 119.272472 7.14295775 119.513705 6.83239437 119.720476 6.48732394 119.927247 6.14225352 120.134018 5.7971831 120.340789 5.45211268 120.547561 5.07253521 120.754332 4.69295775 120.961103 4.41690141 121.236798 4.31338028 121.512492 4.17535211 121.822649 4.17535211 122.236191 4.34788732 122.546348 4.48591549 122.787581 4.72746479 122.925428 5.03802817 123.063276 5.34859155 123.028814 5.69366197 122.787581 6.07323944 122.546348 6.48732394 122.339577 6.90140845 122.098344 7.28098592 121.857111 7.66056338 121.615878 8.04014085 121.340183 8.41971831 121.064488 8.79929577 120.788794 9.17887324 120.478637 9.5584507 120.16848 9.93802817 119.823862 10.3521127 119.444781 10.8352113 120.340789 11.6288732 121.133412 12.3535211 121.822649 13.0091549 122.511886 13.6302817 123.166661 14.2169014 123.752513 14.7690141 124.131593 15.1485915 124.303902 15.4591549 124.234979 15.7697183 124.234979 16.0112676 124.06267 16.2873239 123.752513 16.5633803z"/>
    </g>
  </g>
</svg>
